<svg xmlns="http://www.w3.org/2000/svg" aria-labelledby="hdu-focus-light-title hdu-focus-light-desc" role="img" viewBox="0 0 890 268"><title id="hdu-focus-light-title">Focus - four engineering domains</title><desc id="hdu-focus-light-desc">Four domains of practice. Interface: Component architecture in React. Systems: Transactional, idempotent services. Data: Local-first persistence and offline. Motion: Animation as a composable system.</desc><path fill="#fafaf7" d="M0 0h890v268H0z"/><rect width="889" height="267" x=".5" y=".5" fill="none" stroke="#dbdbd1" rx="2"/><path fill="#474d55" d="M47.8 34.26q-1.79 0-3.11-.7t-2.04-1.96-.73-2.96v-8.26q0-1.72.72-2.97.71-1.25 2.04-1.95t3.12-.7q1.82 0 3.13.7 1.32.7 2.03 1.95.72 1.25.72 2.97v8.26q0 1.69-.73 2.96-.73 1.26-2.04 1.96-1.32.7-3.11.7m0-2.42q1.46 0 2.33-.88.87-.89.87-2.32v-8.26q0-1.43-.87-2.32t-2.33-.88-2.33.88q-.87.89-.87 2.32v8.26q0 1.43.87 2.32t2.33.88m0-5.72q-.73 0-1.18-.47-.46-.46-.46-1.22 0-.73.46-1.18.45-.46 1.18-.46t1.18.46q.46.45.46 1.18 0 .76-.46 1.22-.45.47-1.18.47M62.54 34v-2.5h5.05V17.46l-5.07 3.77v-3.04l4.34-3.17h3.53V31.5h4.09V34Z"/><path fill="#616872" d="M100.17 34V14.99h11.46v2.6h-8.73v5.67h8.06v2.6h-8.01V34Zm25.79.26q-1.77 0-3.05-.66-1.29-.67-1.98-1.93t-.69-2.95V20.3q0-1.72.69-2.97.69-1.24 1.98-1.91 1.28-.66 3.05-.66t3.05.66q1.29.67 1.98 1.91.69 1.25.69 2.94v8.45q0 1.69-.69 2.95t-1.98 1.93q-1.28.66-3.05.66m0-2.5q1.43 0 2.17-.79t.74-2.25V20.3q0-1.48-.74-2.26t-2.17-.78q-1.4 0-2.16.78-.75.78-.75 2.26v8.42q0 1.46.75 2.25.76.79 2.16.79m20.38 2.5q-1.76 0-3.08-.66-1.31-.67-2.02-1.93-.72-1.26-.72-2.95V20.3q0-1.72.72-2.97.71-1.24 2.02-1.91 1.32-.66 3.08-.66 1.77 0 3.07.68 1.3.67 2.02 1.91.71 1.23.71 2.95h-2.81q0-1.48-.78-2.26t-2.21-.78-2.22.78-.79 2.23v8.45q0 1.46.79 2.25t2.22.79 2.21-.79.78-2.25h2.81q0 1.69-.71 2.94-.72 1.25-2.02 1.92-1.3.68-3.07.68m20.18 0q-2.73 0-4.21-1.49-1.48-1.5-1.48-4.07V15.02h2.8V28.7q0 1.43.72 2.26.71.83 2.17.83 1.43 0 2.16-.83t.73-2.26V15.02h2.8V28.7q0 2.57-1.48 4.07-1.48 1.49-4.21 1.49m20.36 0q-1.93 0-3.3-.64-1.38-.63-2.14-1.82-.75-1.18-.75-2.82h2.78q0 1.3.91 2.04t2.52.74q1.51 0 2.37-.72.86-.73.86-2.01 0-1.06-.59-1.84-.58-.78-1.67-1.07l-2.4-.7q-2.08-.6-3.21-2.04t-1.13-3.45q0-1.56.7-2.73.71-1.17 2.01-1.82t3.06-.65q2.6 0 4.18 1.41 1.57 1.4 1.6 3.77h-2.81q0-1.25-.79-1.96-.8-.72-2.23-.72-1.38 0-2.16.66-.78.67-.78 1.86 0 1.07.59 1.85.58.78 1.68 1.09l2.41.73q2.08.57 3.2 2.03 1.12 1.45 1.12 3.48 0 1.59-.75 2.8-.76 1.2-2.11 1.87-1.35.66-3.17.66"/><path fill="none" stroke="#dbdbd1" d="M40 52h810"/><path fill="#616872" d="M42.55 98v-2.5h3.82V81.52h-3.82v-2.5h10.5v2.5h-3.82V95.5h3.82V98Zm19.84 0V79.02h3.53l5.54 15.78-.13-1.79q-.08-1.04-.12-2.16t-.04-2.03v-9.8h2.6V98h-3.53l-5.51-15.78.11 1.69q.07 1.01.11 2.1.04 1.1.04 2.03V98Zm24.57 0V81.59h-5.07v-2.6h12.94v2.6h-5.07V98Zm16.32 0V79.02h11.16v2.5h-8.4v5.38h7.49v2.47h-7.49v6.13h8.4V98Zm20.02 0V79.02h5.96q1.79 0 3.12.69 1.32.69 2.07 1.94.74 1.24.74 2.93 0 1.9-.98 3.29-.97 1.39-2.64 1.97l3.88 8.16h-3.2l-3.46-7.8h-2.68V98Zm2.81-10.27h3.15q1.4 0 2.23-.85.84-.84.84-2.24 0-1.46-.84-2.29-.83-.83-2.23-.83h-3.15ZM143.69 98V78.99h11.46v2.6h-8.73v5.67h8.06v2.6h-8.01V98Zm19.11 0 4.83-18.98h3.7L176.16 98h-2.83l-1.15-4.81h-5.38L165.66 98Zm4.52-7.12h4.32l-1.3-5.49q-.34-1.46-.56-2.53l-.3-1.47-.29 1.47q-.2 1.07-.57 2.5Zm22.54 7.38q-1.76 0-3.08-.66-1.31-.67-2.03-1.93t-.71-2.95V84.3q0-1.72.71-2.97.72-1.24 2.03-1.91 1.32-.66 3.08-.66 1.77 0 3.07.68 1.3.67 2.02 1.91.71 1.23.71 2.95h-2.81q0-1.48-.78-2.26t-2.21-.78-2.22.78-.79 2.23v8.45q0 1.46.79 2.25t2.22.79 2.21-.79.78-2.25h2.81q0 1.69-.71 2.94-.72 1.25-2.02 1.92-1.3.68-3.07.68m14.82-.26V79.02h11.16v2.5h-8.4v5.38h7.49v2.47h-7.49v6.13h8.4V98Z"/><path fill="#14171b" d="M247.9 98.26q-1.71 0-2.97-.65t-1.95-1.88q-.69-1.24-.69-2.93v-8.58q0-1.72.69-2.94t1.95-1.87 2.97-.65 2.97.66q1.25.67 1.92 1.89.68 1.22.68 2.91h-2.34q0-1.61-.85-2.48-.84-.87-2.38-.87-1.53 0-2.4.85-.87.86-.87 2.47v8.61q0 1.61.87 2.48t2.4.87 2.38-.87.85-2.48h2.34q0 1.66-.68 2.9-.67 1.23-1.92 1.9t-2.97.66m16.02-.05q-1.72 0-2.96-.65-1.25-.65-1.94-1.89t-.69-2.92v-3.8q0-1.71.69-2.94.69-1.22 1.94-1.87 1.24-.65 2.96-.65t2.96.65 1.94 1.87.69 2.92v3.82q0 1.69-.69 2.92-.69 1.24-1.94 1.89-1.24.65-2.96.65m0-2.08q1.53 0 2.39-.86t.86-2.52v-3.8q0-1.66-.86-2.52t-2.39-.86q-1.51 0-2.38.86t-.87 2.52v3.8q0 1.66.87 2.52t2.38.86M273.96 98V83.7h2.05v1.72h.47l-.37.62q0-1.2.64-1.9t1.73-.7q1.2 0 1.85.88.65.89.65 2.5l-.71-1.4h1.1l-.5.62q0-1.2.67-1.9.66-.7 1.75-.7 1.35 0 2.09 1.01.74 1.02.74 2.68V98h-2.15V87.11q0-.89-.38-1.38-.38-.5-1.11-.5-.7 0-1.1.48-.4.49-.4 1.37V98h-1.88V87.11q0-.91-.4-1.4t-1.13-.48-1.09.48q-.37.49-.37 1.37V98Zm16.79 4.68V83.7h2.34v2.73h.47l-.47.55q0-1.64 1.08-2.59t2.85-.95q2.16 0 3.44 1.42 1.29 1.41 1.29 3.88v4.19q0 1.64-.59 2.83-.58 1.2-1.63 1.85-1.06.65-2.51.65-1.74 0-2.84-.96t-1.09-2.58l.47.55h-.52l.05 3.25v4.16Zm5.49-6.45q1.48 0 2.32-.88.85-.89.85-2.55v-3.9q0-1.66-.85-2.55-.84-.88-2.32-.88-1.43 0-2.29.91t-.86 2.52v3.9q0 1.61.86 2.52t2.29.91m16.04 1.98q-1.72 0-2.96-.65-1.25-.65-1.94-1.89t-.69-2.92v-3.8q0-1.71.69-2.94.69-1.22 1.94-1.87 1.24-.65 2.96-.65t2.96.65 1.94 1.87q.69 1.23.69 2.92v3.82q0 1.69-.69 2.92-.69 1.24-1.94 1.89-1.24.65-2.96.65m0-2.08q1.53 0 2.39-.86t.86-2.52v-3.8q0-1.66-.86-2.52t-2.39-.86q-1.51 0-2.38.86t-.87 2.52v3.8q0 1.66.87 2.52t2.38.86M322.99 98V83.7h2.34v2.73h.5l-.5.55q0-1.69 1.02-2.62 1.01-.92 2.8-.92 2.16 0 3.44 1.33 1.27 1.32 1.27 3.61V98h-2.34v-9.36q0-1.53-.82-2.35t-2.22-.82q-1.46 0-2.3.88-.85.89-.85 2.55V98Zm21.53.26q-1.69 0-2.95-.68-1.26-.67-1.95-1.91t-.69-2.87v-3.9q0-1.66.69-2.89.69-1.22 1.95-1.89 1.26-.68 2.95-.68t2.95.68q1.26.67 1.95 1.89.69 1.23.69 2.89v2.52h-8.89v1.38q0 1.69.86 2.59.85.89 2.44.89 1.35 0 2.18-.48t1.02-1.44h2.34q-.24 1.79-1.76 2.85-1.52 1.05-3.78 1.05m3.3-8.4v-.96q0-1.69-.84-2.6-.85-.91-2.46-.91-1.59 0-2.44.91-.86.91-.86 2.6v.75H348Zm7.41 8.14V83.7h2.34v2.73h.5l-.5.55q0-1.69 1.02-2.62 1.01-.92 2.8-.92 2.16 0 3.44 1.33 1.27 1.32 1.27 3.61V98h-2.34v-9.36q0-1.53-.82-2.35t-2.22-.82q-1.46 0-2.3.88-.85.89-.85 2.55V98Zm23.09 0q-1.85 0-2.87-.99-1.03-.99-1.03-2.78v-8.4h-4.03V83.7h4.03v-4.03h2.34v4.03h5.72v2.13h-5.72v8.4q0 1.64 1.56 1.64h3.9V98Zm29.43.26q-2.26 0-3.56-1.16-1.3-1.15-1.3-3.13 0-2 1.3-3.15 1.3-1.14 3.51-1.14h4.42v-1.43q0-1.33-.79-2.04-.8-.72-2.25-.72-1.28 0-2.13.54-.86.53-.99 1.44h-2.34q.23-1.85 1.74-2.94t3.77-1.09q2.47 0 3.9 1.27 1.43 1.28 1.43 3.46V98h-2.29v-2.73h-.39l.39-.39q0 1.56-1.21 2.47t-3.21.91m.57-1.85q1.67 0 2.73-.83 1.07-.83 1.07-2.13v-2.03h-4.37q-1.17 0-1.84.65t-.68 1.77q0 1.2.82 1.89t2.27.68M420.21 98V83.7h2.28v2.73h.55l-.75 1.69q0-2.31 1-3.5 1-1.18 2.97-1.18 2.27 0 3.61 1.42 1.33 1.41 1.33 3.83v.86h-2.34v-.65q0-1.69-.81-2.59t-2.33-.89q-1.48 0-2.33.91-.84.91-.84 2.57V98Zm21.13.26q-1.71 0-3-.65t-1.99-1.88q-.7-1.24-.7-2.93v-3.9q0-1.72.7-2.94t1.99-1.87 3-.65q2.47 0 3.98 1.33 1.51 1.32 1.59 3.61h-2.34q-.08-1.38-.92-2.12t-2.31-.74q-1.53 0-2.44.87t-.91 2.48v3.93q0 1.61.91 2.5t2.44.88q1.46 0 2.31-.75.84-.76.92-2.11h2.34q-.08 2.29-1.59 3.61-1.51 1.33-3.98 1.33m10.61-.26V79.02h2.34v7.41h.5l-.5.55q0-1.69 1.02-2.62 1.01-.92 2.8-.92 2.16 0 3.44 1.33 1.27 1.32 1.27 3.61V98h-2.34v-9.36q0-1.53-.82-2.38t-2.22-.84q-1.46 0-2.3.91-.85.91-.85 2.57V98Zm15.94 0v-2.13h5.07V85.83h-4.42V83.7h6.76v12.17h4.81V98Zm5.98-16.87q-.86 0-1.35-.45-.5-.44-.5-1.19 0-.78.5-1.24.49-.45 1.35-.45t1.35.45.5 1.24q0 .75-.5 1.19-.49.45-1.35.45M491.16 98q-1.85 0-2.87-.99-1.03-.99-1.03-2.78v-8.4h-4.03V83.7h4.03v-4.03h2.34v4.03h5.72v2.13h-5.72v8.4q0 1.64 1.56 1.64h3.9V98Zm14.56.26q-1.69 0-2.95-.68-1.26-.67-1.95-1.91t-.69-2.87v-3.9q0-1.66.69-2.89.69-1.22 1.95-1.89 1.26-.68 2.95-.68t2.95.68q1.26.67 1.95 1.89.69 1.23.69 2.89v2.52h-8.89v1.38q0 1.69.86 2.59.85.89 2.44.89 1.35 0 2.18-.48t1.02-1.44h2.34q-.24 1.79-1.76 2.85-1.52 1.05-3.78 1.05m3.3-8.4v-.96q0-1.69-.84-2.6-.85-.91-2.46-.91-1.59 0-2.44.91-.86.91-.86 2.6v.75h6.78Zm12.92 8.4q-1.71 0-3-.65t-1.99-1.88q-.7-1.24-.7-2.93v-3.9q0-1.72.7-2.94t1.99-1.87 3-.65q2.47 0 3.98 1.33 1.51 1.32 1.59 3.61h-2.34q-.08-1.38-.92-2.12t-2.31-.74q-1.53 0-2.44.87t-.91 2.48v3.93q0 1.61.91 2.5t2.44.88q1.46 0 2.31-.75.84-.76.92-2.11h2.34q-.08 2.29-1.59 3.61-1.51 1.33-3.98 1.33m17.58-.26q-1.85 0-2.87-.99-1.03-.99-1.03-2.78v-8.4h-4.03V83.7h4.03v-4.03h2.34v4.03h5.72v2.13h-5.72v8.4q0 1.64 1.56 1.64h3.9V98Zm14.53.26q-2.47 0-3.95-1.47t-1.48-3.99v-9.1h2.34v9.1q0 1.61.83 2.51t2.26.9q1.46 0 2.31-.9.84-.9.84-2.51v-9.1h2.34v9.1q0 2.52-1.51 3.99t-3.98 1.47m11.24-.26V83.7h2.28v2.73h.55l-.75 1.69q0-2.31 1-3.5 1-1.18 2.97-1.18 2.27 0 3.61 1.42 1.33 1.41 1.33 3.83v.86h-2.34v-.65q0-1.69-.81-2.59t-2.33-.89q-1.48 0-2.33.91-.84.91-.84 2.57V98Zm21.03.26q-1.69 0-2.95-.68-1.26-.67-1.95-1.91t-.69-2.87v-3.9q0-1.66.69-2.89.69-1.22 1.95-1.89 1.26-.68 2.95-.68t2.95.68q1.26.67 1.95 1.89.69 1.23.69 2.89v2.52h-8.89v1.38q0 1.69.86 2.59.85.89 2.44.89 1.35 0 2.18-.48t1.02-1.44h2.34q-.24 1.79-1.76 2.85-1.52 1.05-3.78 1.05m3.3-8.4v-.96q0-1.69-.84-2.6-.85-.91-2.46-.91-1.59 0-2.44.91-.86.91-.86 2.6v.75h6.78ZM612.97 98v-2.13h5.07V85.83h-4.42V83.7h6.76v12.17h4.81V98Zm5.98-16.87q-.86 0-1.35-.45-.5-.44-.5-1.19 0-.78.5-1.24.49-.45 1.35-.45t1.35.45.5 1.24q0 .75-.5 1.19-.49.45-1.35.45M629.27 98V83.7h2.34v2.73h.5l-.5.55q0-1.69 1.02-2.62 1.01-.92 2.8-.92 2.16 0 3.44 1.33 1.27 1.32 1.27 3.61V98h-2.34v-9.36q0-1.53-.82-2.35t-2.22-.82q-1.46 0-2.3.88-.85.89-.85 2.55V98Zm32.24 0V79.02h5.88q1.69 0 2.96.69 1.28.69 1.98 1.91t.7 2.86q0 1.92-1 3.3t-2.72 1.9l3.98 8.32h-2.76l-3.64-8.06h-3.04V98Zm2.34-10.17h3.54q1.45 0 2.34-.92t.88-2.43q0-1.53-.88-2.44-.89-.91-2.34-.91h-3.54Zm19.19 10.43q-1.69 0-2.95-.68-1.26-.67-1.95-1.91t-.69-2.87v-3.9q0-1.66.69-2.89.69-1.22 1.95-1.89 1.26-.68 2.95-.68t2.95.68q1.26.67 1.95 1.89.69 1.23.69 2.89v2.52h-8.89v1.38q0 1.69.86 2.59.85.89 2.44.89 1.35 0 2.18-.48t1.02-1.44h2.34q-.24 1.79-1.76 2.85-1.52 1.05-3.78 1.05m3.3-8.4v-.96q0-1.69-.84-2.6-.85-.91-2.46-.91-1.59 0-2.44.91-.86.91-.86 2.6v.75h6.78Zm11.57 8.4q-2.26 0-3.56-1.16-1.3-1.15-1.3-3.13 0-2 1.3-3.15 1.3-1.14 3.51-1.14h4.42v-1.43q0-1.33-.79-2.04-.8-.72-2.25-.72-1.28 0-2.13.54-.86.53-.99 1.44h-2.34q.23-1.85 1.74-2.94t3.77-1.09q2.47 0 3.9 1.27 1.43 1.28 1.43 3.46V98h-2.29v-2.73h-.39l.39-.39q0 1.56-1.21 2.47t-3.21.91m.57-1.85q1.67 0 2.73-.83 1.07-.83 1.07-2.13v-2.03h-4.37q-1.17 0-1.84.65t-.68 1.77q0 1.2.82 1.89t2.27.68m16.9 1.85q-1.71 0-3-.65t-1.99-1.88q-.7-1.24-.7-2.93v-3.9q0-1.72.7-2.94t1.99-1.87 3-.65q2.47 0 3.98 1.33 1.51 1.32 1.59 3.61h-2.34q-.08-1.38-.92-2.12t-2.31-.74q-1.53 0-2.44.87t-.91 2.48v3.93q0 1.61.91 2.5t2.44.88q1.46 0 2.31-.75.84-.76.92-2.11h2.34q-.08 2.29-1.59 3.61-1.51 1.33-3.98 1.33m17.58-.26q-1.85 0-2.87-.99-1.03-.99-1.03-2.78v-8.4h-4.03V83.7h4.03v-4.03h2.34v4.03h5.72v2.13h-5.72v8.4q0 1.64 1.56 1.64h3.9V98Z"/><path fill="none" stroke="#dbdbd1" d="M40 114h810"/><path fill="#616872" d="M47.88 144.26q-1.93 0-3.3-.64-1.38-.63-2.14-1.82-.75-1.18-.75-2.82h2.78q0 1.3.91 2.04t2.52.74q1.51 0 2.37-.72.86-.73.86-2.01 0-1.06-.59-1.84-.58-.78-1.67-1.07l-2.4-.7q-2.08-.6-3.21-2.04t-1.13-3.45q0-1.56.7-2.73.71-1.17 2.01-1.82t3.06-.65q2.6 0 4.18 1.41 1.57 1.4 1.6 3.77h-2.81q0-1.25-.8-1.96-.79-.72-2.22-.72-1.38 0-2.16.66-.78.67-.78 1.86 0 1.07.59 1.85.58.78 1.68 1.09l2.41.73q2.08.57 3.2 2.03 1.12 1.45 1.12 3.48 0 1.59-.75 2.8-.76 1.2-2.11 1.87-1.35.66-3.17.66m18.8-.26v-6.99l-5.65-11.99h2.92l3.35 7.18q.34.7.55 1.31.2.61.28.95.05-.34.28-.95.22-.61.53-1.31l3.27-7.18h2.92l-5.65 11.99V144Zm21.76.26q-1.93 0-3.3-.64-1.38-.63-2.14-1.82-.75-1.18-.75-2.82h2.78q0 1.3.91 2.04t2.52.74q1.51 0 2.37-.72.86-.73.86-2.01 0-1.06-.59-1.84-.58-.78-1.67-1.07l-2.4-.7q-2.08-.6-3.21-2.04t-1.13-3.45q0-1.56.7-2.73.71-1.17 2.01-1.82t3.06-.65q2.6 0 4.18 1.41 1.57 1.4 1.6 3.77h-2.81q0-1.25-.79-1.96-.8-.72-2.23-.72-1.38 0-2.16.66-.78.67-.78 1.86 0 1.07.59 1.85.58.78 1.68 1.09l2.41.73q2.08.57 3.2 2.03 1.12 1.45 1.12 3.48 0 1.59-.75 2.8-.76 1.2-2.11 1.87-1.35.66-3.17.66m18.8-.26v-16.41h-5.07v-2.6h12.94v2.6h-5.07V144Zm16.32 0v-18.98h11.16v2.5h-8.4v5.38h7.49v2.47h-7.49v6.13h8.4v2.5Zm19.56 0v-18.98h3.45l1.9 6.08q.29.86.5 1.66.2.79.28 1.18.11-.39.3-1.18.2-.8.46-1.66l1.82-6.08h3.45V144h-2.65v-6.4q0-1.22.07-2.71.06-1.5.19-3.02l.26-2.91.24-2.43-2.81 9.23h-2.71l-2.86-9.23q.13 1.01.26 2.35t.24 2.85q.1 1.51.18 3.03t.08 2.84v6.4Zm26.44.26q-1.93 0-3.3-.64-1.38-.63-2.14-1.82-.75-1.18-.75-2.82h2.78q0 1.3.91 2.04t2.52.74q1.51 0 2.37-.72.86-.73.86-2.01 0-1.06-.59-1.84-.58-.78-1.67-1.07l-2.4-.7q-2.08-.6-3.21-2.04t-1.13-3.45q0-1.56.7-2.73.71-1.17 2.01-1.82t3.06-.65q2.6 0 4.18 1.41 1.57 1.4 1.6 3.77h-2.81q0-1.25-.8-1.96-.79-.72-2.22-.72-1.38 0-2.16.66-.78.67-.78 1.86 0 1.07.59 1.85.58.78 1.68 1.09l2.41.73q2.08.57 3.2 2.03 1.12 1.45 1.12 3.48 0 1.59-.75 2.8-.76 1.2-2.11 1.87-1.35.66-3.17.66"/><path fill="#14171b" d="M246.63 144v-16.87h-5.2v-2.14h12.74v2.14h-5.2V144Zm12.38 0v-14.3h2.28v2.73h.55l-.75 1.69q0-2.31 1-3.5 1-1.18 2.97-1.18 2.27 0 3.6 1.42 1.34 1.41 1.34 3.83v.86h-2.34v-.65q0-1.69-.82-2.59t-2.32-.89q-1.48 0-2.33.91-.84.91-.84 2.57v9.1Zm19.78.26q-2.26 0-3.56-1.16-1.3-1.15-1.3-3.13 0-2 1.3-3.15 1.3-1.14 3.51-1.14h4.42v-1.43q0-1.33-.79-2.04-.8-.72-2.25-.72-1.28 0-2.13.54-.86.53-.99 1.44h-2.34q.23-1.85 1.74-2.94t3.77-1.09q2.47 0 3.9 1.27 1.43 1.28 1.43 3.46V144h-2.29v-2.73h-.39l.39-.39q0 1.56-1.21 2.47t-3.21.91m.57-1.85q1.67 0 2.73-.83 1.07-.83 1.07-2.13v-2.03h-4.37q-1.17 0-1.84.65t-.68 1.77q0 1.2.82 1.89t2.27.68m11.39 1.59v-14.3h2.34v2.73h.5l-.5.55q0-1.69 1.02-2.62 1.01-.92 2.8-.92 2.16 0 3.44 1.33 1.27 1.32 1.27 3.61V144h-2.34v-9.36q0-1.53-.82-2.35t-2.22-.82q-1.46 0-2.3.88-.85.89-.85 2.55v9.1Zm21.09.21q-1.46 0-2.54-.46-1.08-.45-1.71-1.28-.64-.84-.77-1.98h2.34q.16.75.85 1.2t1.83.44h1.09q1.38 0 2.05-.56.68-.56.68-1.5 0-.91-.61-1.44t-1.81-.71l-1.92-.32q-2.11-.36-3.13-1.31-1.03-.95-1.03-2.77 0-1.92 1.22-2.98 1.22-1.05 3.67-1.05h.98q2.06 0 3.31.96 1.24.97 1.5 2.6h-2.34q-.15-.67-.78-1.07-.62-.41-1.69-.41h-.98q-1.33 0-1.94.5-.61.49-.61 1.48 0 .88.52 1.3.52.41 1.64.6l1.92.31q2.31.36 3.37 1.35 1.05.99 1.05 2.86 0 1.98-1.26 3.11t-3.81 1.13Zm15.31.05q-2.26 0-3.56-1.16-1.3-1.15-1.3-3.13 0-2 1.3-3.15 1.3-1.14 3.51-1.14h4.42v-1.43q0-1.33-.79-2.04-.8-.72-2.25-.72-1.28 0-2.13.54-.86.53-.99 1.44h-2.34q.23-1.85 1.74-2.94t3.77-1.09q2.47 0 3.9 1.27 1.43 1.28 1.43 3.46V144h-2.29v-2.73h-.39l.39-.39q0 1.56-1.21 2.47t-3.21.91m.57-1.85q1.67 0 2.73-.83 1.07-.83 1.07-2.13v-2.03h-4.37q-1.17 0-1.84.65t-.68 1.77q0 1.2.82 1.89t2.27.68m16.9 1.85q-1.71 0-3-.65t-1.99-1.88-.7-2.93v-3.9q0-1.72.7-2.94t1.99-1.87 3-.65q2.47 0 3.98 1.33 1.51 1.32 1.59 3.61h-2.34q-.08-1.38-.92-2.12t-2.31-.74q-1.53 0-2.44.87t-.91 2.48v3.93q0 1.61.91 2.5t2.44.88q1.46 0 2.31-.75.84-.76.92-2.11h2.34q-.08 2.29-1.59 3.61-1.51 1.33-3.98 1.33m17.58-.26q-1.85 0-2.87-.99-1.03-.99-1.03-2.78v-8.4h-4.03v-2.13h4.03v-4.03h2.34v4.03h5.72v2.13h-5.72v8.4q0 1.64 1.56 1.64h3.9V144Zm8.97 0v-2.13h5.07v-10.04h-4.42v-2.13h6.76v12.17h4.81V144Zm5.98-16.87q-.86 0-1.35-.45-.5-.44-.5-1.19 0-.78.5-1.24.49-.45 1.35-.45t1.35.45.5 1.24q0 .75-.5 1.19-.49.45-1.35.45m15.73 17.08q-1.72 0-2.96-.65-1.25-.65-1.94-1.89t-.69-2.92v-3.8q0-1.71.69-2.94.69-1.22 1.94-1.87 1.24-.65 2.96-.65t2.96.65 1.94 1.87.69 2.92v3.82q0 1.69-.69 2.92-.69 1.24-1.94 1.89-1.24.65-2.96.65m0-2.08q1.53 0 2.39-.86t.86-2.52v-3.8q0-1.66-.86-2.52t-2.39-.86q-1.51 0-2.38.86t-.87 2.52v3.8q0 1.66.87 2.52t2.38.86m10.71 1.87v-14.3h2.34v2.73h.5l-.5.55q0-1.69 1.02-2.62 1.01-.92 2.8-.92 2.16 0 3.44 1.33 1.27 1.32 1.27 3.61V144h-2.34v-9.36q0-1.53-.82-2.35t-2.22-.82q-1.46 0-2.3.88-.85.89-.85 2.55v9.1Zm20.28.26q-2.26 0-3.56-1.16-1.3-1.15-1.3-3.13 0-2 1.3-3.15 1.3-1.14 3.51-1.14h4.42v-1.43q0-1.33-.79-2.04-.8-.72-2.25-.72-1.28 0-2.13.54-.86.53-.99 1.44h-2.34q.23-1.85 1.74-2.94t3.77-1.09q2.47 0 3.9 1.27 1.43 1.28 1.43 3.46V144h-2.29v-2.73h-.39l.39-.39q0 1.56-1.21 2.47t-3.21.91m.57-1.85q1.67 0 2.73-.83 1.07-.83 1.07-2.13v-2.03h-4.37q-1.17 0-1.84.65t-.68 1.77q0 1.2.82 1.89t2.27.68m18.75 1.59q-1.25 0-2.18-.49-.94-.5-1.46-1.41t-.52-2.13v-12.82h-4.81v-2.13h7.15v14.95q0 .88.49 1.39.5.51 1.33.51h4.55V144Zm10.66 4.16 2.08-8.09h3.38l-3.38 8.09Zm30.16-4.16v-2.13h5.07v-10.04h-4.42v-2.13h6.76v12.17h4.81V144Zm5.98-16.87q-.86 0-1.35-.45-.5-.44-.5-1.19 0-.78.5-1.24.49-.45 1.35-.45t1.35.45.5 1.24q0 .75-.5 1.19-.49.45-1.35.45m14.9 17.13q-2.13 0-3.45-1.43-1.31-1.43-1.31-3.87v-4.19q0-2.47 1.3-3.9t3.46-1.43q1.77 0 2.83.96 1.07.96 1.07 2.58l-.47-.55h.52l-.05-3.25v-4.16h2.34V144h-2.34v-2.73h-.47l.47-.55q0 1.64-1.07 2.59-1.06.95-2.83.95m.78-2.03q1.45 0 2.29-.91.83-.91.83-2.52v-3.9q0-1.61-.83-2.52-.84-.91-2.29-.91-1.48 0-2.34.88-.86.89-.86 2.55v3.9q0 1.66.86 2.55t2.34.88m16.17 2.03q-1.69 0-2.95-.68-1.26-.67-1.95-1.91t-.69-2.87v-3.9q0-1.66.69-2.89.69-1.22 1.95-1.89 1.26-.68 2.95-.68t2.95.68q1.26.67 1.95 1.89.69 1.23.69 2.89v2.52h-8.89v1.38q0 1.69.86 2.59.85.89 2.44.89 1.35 0 2.18-.48t1.02-1.44h2.34q-.24 1.79-1.76 2.85-1.52 1.05-3.78 1.05m3.3-8.4v-.96q0-1.69-.84-2.6-.85-.91-2.46-.91-1.59 0-2.44.91-.86.91-.86 2.6v.75h6.78Zm6.74 8.14v-14.3h2.05v1.72h.47l-.37.62q0-1.2.64-1.9t1.73-.7q1.2 0 1.85.88.65.89.65 2.5l-.71-1.4h1.1l-.5.62q0-1.2.67-1.9.66-.7 1.75-.7 1.35 0 2.09 1.01.74 1.02.74 2.68V144h-2.15v-10.89q0-.89-.38-1.38-.38-.5-1.11-.5-.7 0-1.1.48-.4.49-.4 1.37V144h-1.88v-10.89q0-.91-.4-1.4t-1.13-.48-1.09.48q-.37.49-.37 1.37V144Zm16.79 4.68V129.7h2.34v2.73h.47l-.47.55q0-1.64 1.08-2.59t2.85-.95q2.16 0 3.44 1.42 1.29 1.41 1.29 3.88v4.19q0 1.64-.58 2.83-.59 1.2-1.64 1.85-1.06.65-2.51.65-1.74 0-2.84-.96t-1.09-2.58l.47.55h-.52l.05 3.25v4.16Zm5.49-6.45q1.48 0 2.33-.88.84-.89.84-2.55v-3.9q0-1.66-.84-2.55-.85-.88-2.33-.88-1.43 0-2.29.91t-.86 2.52v3.9q0 1.61.86 2.52t2.29.91m16.04 1.98q-1.72 0-2.96-.65-1.25-.65-1.94-1.89t-.69-2.92v-3.8q0-1.71.69-2.94.69-1.22 1.94-1.87 1.24-.65 2.96-.65t2.96.65 1.94 1.87.69 2.92v3.82q0 1.69-.69 2.92-.69 1.24-1.94 1.89-1.24.65-2.96.65m0-2.08q1.53 0 2.39-.86t.86-2.52v-3.8q0-1.66-.86-2.52t-2.39-.86q-1.51 0-2.38.86t-.87 2.52v3.8q0 1.66.87 2.52t2.38.86m17.68 1.87q-1.85 0-2.87-.99-1.03-.99-1.03-2.78v-8.4h-4.03v-2.13h4.03v-4.03h2.34v4.03h5.72v2.13h-5.72v8.4q0 1.64 1.56 1.64h3.9V144Zm14.56.26q-1.69 0-2.95-.68-1.26-.67-1.95-1.91t-.69-2.87v-3.9q0-1.66.69-2.89.69-1.22 1.95-1.89 1.26-.68 2.95-.68t2.95.68q1.26.67 1.95 1.89.69 1.23.69 2.89v2.52h-8.89v1.38q0 1.69.86 2.59.85.89 2.44.89 1.35 0 2.18-.48t1.02-1.44h2.34q-.24 1.79-1.76 2.85-1.52 1.05-3.78 1.05m3.3-8.4v-.96q0-1.69-.84-2.6-.85-.91-2.46-.91-1.59 0-2.44.91-.86.91-.86 2.6v.75h6.78Zm7.41 8.14v-14.3h2.34v2.73h.5l-.5.55q0-1.69 1.02-2.62 1.01-.92 2.8-.92 2.16 0 3.44 1.33 1.27 1.32 1.27 3.61V144h-2.34v-9.36q0-1.53-.82-2.35t-2.22-.82q-1.46 0-2.3.88-.85.89-.85 2.55v9.1Zm23.09 0q-1.85 0-2.87-.99-1.03-.99-1.03-2.78v-8.4h-4.03v-2.13h4.03v-4.03h2.34v4.03h5.72v2.13h-5.72v8.4q0 1.64 1.56 1.64h3.9V144Zm30.24.21q-1.46 0-2.54-.46-1.08-.45-1.71-1.28-.64-.84-.77-1.98h2.34q.16.75.85 1.2t1.83.44h1.09q1.38 0 2.05-.56.68-.56.68-1.5 0-.91-.61-1.44t-1.81-.71l-1.92-.32q-2.11-.36-3.13-1.31-1.03-.95-1.03-2.77 0-1.92 1.22-2.98 1.22-1.05 3.67-1.05h.98q2.06 0 3.31.96 1.24.97 1.5 2.6h-2.34q-.15-.67-.78-1.07-.62-.41-1.69-.41h-.98q-1.33 0-1.94.5-.61.49-.61 1.48 0 .88.52 1.3.52.41 1.64.6l1.92.31q2.31.36 3.37 1.35 1.05.99 1.05 2.86 0 1.98-1.26 3.11t-3.81 1.13Zm16.56.05q-1.69 0-2.95-.68-1.26-.67-1.95-1.91t-.69-2.87v-3.9q0-1.66.69-2.89.69-1.22 1.95-1.89 1.26-.68 2.95-.68t2.95.68q1.26.67 1.95 1.89.69 1.23.69 2.89v2.52h-8.89v1.38q0 1.69.86 2.59.85.89 2.44.89 1.35 0 2.18-.48t1.02-1.44h2.34q-.24 1.79-1.76 2.85-1.52 1.05-3.78 1.05m3.3-8.4v-.96q0-1.69-.84-2.6-.85-.91-2.46-.91-1.59 0-2.44.91-.86.91-.86 2.6v.75h6.78Zm7.91 8.14v-14.3h2.28v2.73h.55l-.75 1.69q0-2.31 1-3.5 1-1.18 2.97-1.18 2.27 0 3.61 1.42 1.33 1.41 1.33 3.83v.86h-2.34v-.65q0-1.69-.81-2.59t-2.33-.89q-1.48 0-2.33.91-.84.91-.84 2.57v9.1Zm19.44 0-4.78-14.3h2.39l3.17 9.62q.29.86.52 1.65t.34 1.24l.37-1.24.49-1.65 3.09-9.62h2.37l-4.78 14.3Zm12.12 0v-2.13h5.07v-10.04h-4.42v-2.13h6.76v12.17h4.81V144Zm5.98-16.87q-.86 0-1.35-.45-.5-.44-.5-1.19 0-.78.5-1.24.49-.45 1.35-.45t1.35.45.5 1.24q0 .75-.5 1.19-.49.45-1.35.45m15.83 17.13q-1.71 0-3-.65t-1.99-1.88-.7-2.93v-3.9q0-1.72.7-2.94t1.99-1.87 3-.65q2.47 0 3.98 1.33 1.51 1.32 1.59 3.61h-2.34q-.08-1.38-.92-2.12t-2.31-.74q-1.53 0-2.44.87t-.91 2.48v3.93q0 1.61.91 2.5t2.44.88q1.46 0 2.31-.75.84-.76.92-2.11h2.34q-.08 2.29-1.59 3.61-1.51 1.33-3.98 1.33m16.02 0q-1.69 0-2.95-.68-1.26-.67-1.95-1.91t-.69-2.87v-3.9q0-1.66.69-2.89.69-1.22 1.95-1.89 1.26-.68 2.95-.68t2.95.68q1.26.67 1.95 1.89.69 1.23.69 2.89v2.52h-8.89v1.38q0 1.69.86 2.59.85.89 2.44.89 1.35 0 2.18-.48t1.02-1.44h2.34q-.24 1.79-1.76 2.85-1.52 1.05-3.78 1.05m3.3-8.4v-.96q0-1.69-.84-2.6-.85-.91-2.46-.91-1.59 0-2.44.91-.86.91-.86 2.6v.75h6.78Zm12.38 8.35q-1.46 0-2.54-.46-1.08-.45-1.71-1.28-.64-.84-.77-1.98h2.34q.16.75.85 1.2t1.83.44h1.09q1.38 0 2.05-.56.68-.56.68-1.5 0-.91-.61-1.44t-1.81-.71l-1.92-.32q-2.11-.36-3.13-1.31-1.03-.95-1.03-2.77 0-1.92 1.22-2.98 1.22-1.05 3.67-1.05h.98q2.06 0 3.31.96 1.24.97 1.5 2.6h-2.34q-.15-.67-.78-1.07-.62-.41-1.69-.41h-.98q-1.33 0-1.94.5-.61.49-.61 1.48 0 .88.52 1.3.52.41 1.64.6l1.92.31q2.31.36 3.37 1.35 1.05.99 1.05 2.86 0 1.98-1.26 3.11t-3.81 1.13Z"/><path fill="none" stroke="#dbdbd1" d="M40 160h810"/><path fill="#616872" d="M42.16 190v-18.98h5.3q1.87 0 3.25.71 1.38.72 2.15 2.02.76 1.3.76 3.07v7.36q0 1.74-.76 3.06-.77 1.33-2.15 2.05t-3.25.71Zm2.81-2.55h2.49q1.56 0 2.46-.87t.9-2.4v-7.36q0-1.51-.9-2.38t-2.46-.87h-2.49ZM61.4 190l4.83-18.98h3.7L74.76 190h-2.83l-1.15-4.81H65.4L64.26 190Zm4.52-7.12h4.32l-1.3-5.49q-.34-1.46-.56-2.53l-.3-1.47-.29 1.47q-.2 1.07-.57 2.5ZM86.96 190v-16.41h-5.07v-2.6h12.94v2.6h-5.07V190Zm15 0 4.83-18.98h3.7l4.83 18.98h-2.83l-1.15-4.81h-5.38l-1.14 4.81Zm4.52-7.12h4.32l-1.3-5.49q-.34-1.46-.56-2.53l-.3-1.47-.29 1.47q-.2 1.07-.57 2.5Z"/><path fill="#14171b" d="M242.99 190v-18.98h2.34v16.85h8.58V190Zm20.93.21q-1.72 0-2.96-.65-1.25-.65-1.94-1.89t-.69-2.92v-3.8q0-1.71.69-2.94.69-1.22 1.94-1.87 1.24-.65 2.96-.65t2.96.65 1.94 1.87.69 2.92v3.82q0 1.69-.69 2.92-.69 1.24-1.94 1.89-1.24.65-2.96.65m0-2.08q1.53 0 2.39-.86t.86-2.52v-3.8q0-1.66-.86-2.52t-2.39-.86q-1.51 0-2.38.86t-.87 2.52v3.8q0 1.66.87 2.52t2.38.86m16.22 2.13q-1.71 0-3-.65t-1.99-1.88-.7-2.93v-3.9q0-1.72.7-2.94t1.99-1.87 3-.65q2.47 0 3.98 1.33 1.51 1.32 1.59 3.61h-2.34q-.08-1.38-.92-2.12t-2.31-.74q-1.53 0-2.44.87t-.91 2.48v3.93q0 1.61.91 2.5t2.44.88q1.46 0 2.31-.75.84-.76.92-2.11h2.34q-.08 2.29-1.59 3.61-1.51 1.33-3.98 1.33m14.77 0q-2.26 0-3.56-1.16-1.3-1.15-1.3-3.13 0-2 1.3-3.15 1.3-1.14 3.51-1.14h4.42v-1.43q0-1.33-.79-2.04-.8-.72-2.25-.72-1.28 0-2.13.54-.86.53-.99 1.44h-2.34q.23-1.85 1.74-2.94t3.77-1.09q2.47 0 3.9 1.27 1.43 1.28 1.43 3.46V190h-2.29v-2.73h-.39l.39-.39q0 1.56-1.21 2.47t-3.21.91m.57-1.85q1.67 0 2.73-.83 1.07-.83 1.07-2.13v-2.03h-4.37q-1.17 0-1.84.65t-.68 1.77q0 1.2.82 1.89t2.27.68m18.75 1.59q-1.25 0-2.18-.49-.94-.5-1.46-1.41t-.52-2.13v-12.82h-4.81v-2.13h7.15v14.95q0 .88.49 1.39.5.51 1.33.51h4.55V190Zm10.01-7.54v-2.08h8.32v2.08Zm18.2 7.54v-10.74h-4.16v-2.13h4.16v-2.47q0-1.69 1.07-2.66 1.06-.98 2.93-.98h4.19v2.13h-4.19q-.8 0-1.23.38t-.43 1.13v2.47h5.85v2.13h-5.85V190Zm12.61 0v-2.13h5.07v-10.04h-4.42v-2.13h6.76v12.17h4.81V190Zm5.98-16.87q-.86 0-1.35-.45-.5-.44-.5-1.19 0-.78.5-1.24.49-.45 1.35-.45t1.35.45q.5.46.5 1.24 0 .75-.5 1.19-.49.45-1.35.45M371.85 190v-14.3h2.28v2.73h.55l-.75 1.69q0-2.31 1-3.5 1-1.18 2.97-1.18 2.27 0 3.6 1.42 1.34 1.41 1.34 3.83v.86h-2.34v-.65q0-1.69-.81-2.59t-2.33-.89q-1.48 0-2.33.91-.84.91-.84 2.57v9.1Zm20.59.21q-1.46 0-2.54-.46-1.08-.45-1.71-1.28-.64-.84-.77-1.98h2.34q.16.75.85 1.2t1.83.44h1.09q1.38 0 2.05-.56.68-.56.68-1.5 0-.91-.61-1.44t-1.81-.71l-1.92-.32q-2.11-.36-3.13-1.31-1.03-.95-1.03-2.77 0-1.92 1.22-2.98 1.22-1.05 3.67-1.05h.98q2.06 0 3.31.96 1.24.97 1.5 2.6h-2.34q-.15-.67-.78-1.07-.62-.41-1.69-.41h-.98q-1.33 0-1.94.5-.61.49-.61 1.48 0 .88.52 1.3.52.41 1.64.6l1.92.31q2.31.36 3.37 1.35 1.05.99 1.05 2.86 0 1.98-1.26 3.11t-3.81 1.13Zm18.12-.21q-1.85 0-2.87-.99-1.03-.99-1.03-2.78v-8.4h-4.03v-2.13h4.03v-4.03H409v4.03h5.72v2.13H409v8.4q0 1.64 1.56 1.64h3.9V190Zm25.27 4.68V175.7h2.34v2.73h.47l-.47.55q0-1.64 1.08-2.59t2.85-.95q2.16 0 3.44 1.42 1.29 1.41 1.29 3.88v4.19q0 1.64-.58 2.83-.59 1.2-1.64 1.85-1.06.65-2.51.65-1.74 0-2.84-.96t-1.09-2.58l.47.55h-.52l.05 3.25v4.16Zm5.49-6.45q1.48 0 2.33-.88.84-.89.84-2.55v-3.9q0-1.66-.84-2.55-.85-.88-2.33-.88-1.43 0-2.29.91t-.86 2.52v3.9q0 1.61.86 2.52t2.29.91m16.04 2.03q-1.69 0-2.95-.68-1.26-.67-1.95-1.91t-.69-2.87v-3.9q0-1.66.69-2.89.69-1.22 1.95-1.89 1.26-.68 2.95-.68t2.95.68q1.26.67 1.95 1.89.69 1.23.69 2.89v2.52h-8.89v1.38q0 1.69.86 2.59.85.89 2.44.89 1.35 0 2.18-.48t1.02-1.44h2.34q-.24 1.79-1.76 2.85-1.52 1.05-3.78 1.05m3.3-8.4v-.96q0-1.69-.84-2.6-.85-.91-2.46-.91-1.59 0-2.44.91-.86.91-.86 2.6v.75h6.78Zm7.91 8.14v-14.3h2.28v2.73h.55l-.75 1.69q0-2.31 1-3.5 1-1.18 2.97-1.18 2.27 0 3.61 1.42 1.33 1.41 1.33 3.83v.86h-2.34v-.65q0-1.69-.81-2.59t-2.33-.89q-1.48 0-2.33.91-.84.91-.84 2.57v9.1Zm20.59.21q-1.46 0-2.54-.46-1.08-.45-1.71-1.28-.64-.84-.77-1.98h2.34q.16.75.85 1.2t1.83.44h1.09q1.38 0 2.05-.56.68-.56.68-1.5 0-.91-.61-1.44t-1.81-.71l-1.92-.32q-2.11-.36-3.13-1.31-1.03-.95-1.03-2.77 0-1.92 1.22-2.98 1.22-1.05 3.67-1.05h.98q2.06 0 3.31.96 1.24.97 1.5 2.6h-2.34q-.15-.67-.78-1.07-.62-.41-1.69-.41h-.98q-1.33 0-1.94.5-.61.49-.61 1.48 0 .88.52 1.3.52.41 1.64.6l1.92.31q2.31.36 3.37 1.35 1.05.99 1.05 2.86 0 1.98-1.26 3.11t-3.81 1.13Zm10.97-.21v-2.13h5.07v-10.04h-4.42v-2.13h6.76v12.17h4.81V190Zm5.98-16.87q-.86 0-1.35-.45-.5-.44-.5-1.19 0-.78.5-1.24.49-.45 1.35-.45t1.35.45q.5.46.5 1.24 0 .75-.5 1.19-.49.45-1.35.45m15.29 17.08q-1.46 0-2.54-.46-1.08-.45-1.71-1.28-.64-.84-.77-1.98h2.34q.16.75.84 1.2.69.44 1.84.44h1.09q1.38 0 2.05-.56.68-.56.68-1.5 0-.91-.61-1.44t-1.81-.71l-1.92-.32q-2.11-.36-3.13-1.31-1.03-.95-1.03-2.77 0-1.92 1.22-2.98 1.22-1.05 3.67-1.05h.98q2.06 0 3.31.96 1.24.97 1.5 2.6h-2.34q-.15-.67-.78-1.07-.62-.41-1.69-.41h-.98q-1.33 0-1.94.5-.61.49-.61 1.48 0 .88.52 1.3.52.41 1.64.6l1.92.31q2.31.36 3.37 1.35 1.05.99 1.05 2.86 0 1.98-1.26 3.11t-3.81 1.13Zm18.12-.21q-1.85 0-2.87-.99-1.03-.99-1.03-2.78v-8.4h-4.03v-2.13h4.03v-4.03h2.34v4.03h5.72v2.13h-5.72v8.4q0 1.64 1.56 1.64h3.9V190Zm14.56.26q-1.69 0-2.95-.68-1.26-.67-1.95-1.91t-.69-2.87v-3.9q0-1.66.69-2.89.69-1.22 1.95-1.89 1.26-.68 2.95-.68t2.95.68q1.26.67 1.95 1.89.69 1.23.69 2.89v2.52h-8.89v1.38q0 1.69.86 2.59.85.89 2.44.89 1.35 0 2.18-.48t1.02-1.44h2.34q-.24 1.79-1.76 2.85-1.52 1.05-3.78 1.05m3.3-8.4v-.96q0-1.69-.84-2.6-.85-.91-2.46-.91-1.59 0-2.44.91-.86.91-.86 2.6v.75h6.78Zm7.41 8.14v-14.3h2.34v2.73h.5l-.5.55q0-1.69 1.02-2.62 1.01-.92 2.8-.92 2.16 0 3.44 1.33 1.27 1.32 1.27 3.61V190h-2.34v-9.36q0-1.53-.82-2.35t-2.22-.82q-1.46 0-2.3.88-.85.89-.85 2.55v9.1Zm21.63.26q-1.71 0-3-.65t-1.99-1.88-.7-2.93v-3.9q0-1.72.7-2.94t1.99-1.87 3-.65q2.47 0 3.98 1.33 1.51 1.32 1.59 3.61h-2.34q-.08-1.38-.92-2.12t-2.31-.74q-1.53 0-2.44.87t-.91 2.48v3.93q0 1.61.91 2.5t2.44.88q1.46 0 2.31-.75.84-.76.92-2.11h2.34q-.08 2.29-1.59 3.61-1.51 1.33-3.98 1.33m16.02 0q-1.69 0-2.95-.68-1.26-.67-1.95-1.91t-.69-2.87v-3.9q0-1.66.69-2.89.69-1.22 1.95-1.89 1.26-.68 2.95-.68t2.95.68q1.26.67 1.95 1.89.69 1.23.69 2.89v2.52h-8.89v1.38q0 1.69.86 2.59.85.89 2.44.89 1.35 0 2.18-.48t1.02-1.44h2.34q-.24 1.79-1.76 2.85-1.52 1.05-3.78 1.05m3.3-8.4v-.96q0-1.69-.84-2.6-.85-.91-2.46-.91-1.59 0-2.44.91-.86.91-.86 2.6v.75h6.78Zm27.69 8.4q-2.26 0-3.56-1.16-1.3-1.15-1.3-3.13 0-2 1.3-3.15 1.3-1.14 3.51-1.14h4.42v-1.43q0-1.33-.79-2.04-.8-.72-2.25-.72-1.28 0-2.13.54-.86.53-.99 1.44h-2.34q.23-1.85 1.74-2.94t3.77-1.09q2.47 0 3.9 1.27 1.43 1.28 1.43 3.46V190h-2.29v-2.73h-.39l.39-.39q0 1.56-1.21 2.47t-3.21.91m.57-1.85q1.67 0 2.73-.83 1.07-.83 1.07-2.13v-2.03h-4.37q-1.17 0-1.84.65t-.68 1.77q0 1.2.82 1.89t2.27.68m11.39 1.59v-14.3h2.34v2.73h.5l-.5.55q0-1.69 1.02-2.62 1.01-.92 2.8-.92 2.16 0 3.44 1.33 1.27 1.32 1.27 3.61V190h-2.34v-9.36q0-1.53-.82-2.35t-2.22-.82q-1.46 0-2.3.88-.85.89-.85 2.55v9.1Zm20.7.26q-2.13 0-3.45-1.43-1.31-1.43-1.31-3.87v-4.19q0-2.47 1.3-3.9t3.46-1.43q1.77 0 2.83.96 1.07.96 1.07 2.58l-.47-.55h.52l-.05-3.25v-4.16h2.34V190h-2.34v-2.73h-.47l.47-.55q0 1.64-1.07 2.59-1.06.95-2.83.95m.78-2.03q1.45 0 2.29-.91.83-.91.83-2.52v-3.9q0-1.61-.83-2.52-.84-.91-2.29-.91-1.48 0-2.34.88-.86.89-.86 2.55v3.9q0 1.66.86 2.55t2.34.88m32.29 1.98q-1.72 0-2.96-.65-1.25-.65-1.94-1.89t-.69-2.92v-3.8q0-1.71.69-2.94.69-1.22 1.94-1.87 1.24-.65 2.96-.65t2.96.65 1.94 1.87.69 2.92v3.82q0 1.69-.69 2.92-.69 1.24-1.94 1.89-1.24.65-2.96.65m0-2.08q1.53 0 2.39-.86t.86-2.52v-3.8q0-1.66-.86-2.52t-2.39-.86q-1.51 0-2.38.86t-.87 2.52v3.8q0 1.66.87 2.52t2.38.86M713.2 190v-10.74h-4.16v-2.13h4.16v-2.47q0-1.69 1.07-2.66 1.06-.98 2.93-.98h4.19v2.13h-4.19q-.8 0-1.23.38t-.43 1.13v2.47h5.85v2.13h-5.85V190Zm16.12 0v-10.74h-4.16v-2.13h4.16v-2.47q0-1.69 1.07-2.66 1.06-.98 2.93-.98h4.19v2.13h-4.19q-.8 0-1.23.38t-.43 1.13v2.47h5.85v2.13h-5.85V190Zm20.15 0q-1.25 0-2.18-.49-.94-.5-1.46-1.41t-.52-2.13v-12.82h-4.81v-2.13h7.15v14.95q0 .88.49 1.39.5.51 1.33.51h4.55V190Zm8.58 0v-2.13h5.07v-10.04h-4.42v-2.13h6.76v12.17h4.81V190Zm5.98-16.87q-.86 0-1.35-.45-.5-.44-.5-1.19 0-.78.5-1.24.49-.45 1.35-.45t1.35.45q.5.46.5 1.24 0 .75-.5 1.19-.49.45-1.35.45M774.35 190v-14.3h2.34v2.73h.5l-.5.55q0-1.69 1.02-2.62 1.01-.92 2.8-.92 2.16 0 3.44 1.33 1.27 1.32 1.27 3.61V190h-2.34v-9.36q0-1.53-.82-2.35t-2.22-.82q-1.46 0-2.3.88-.85.89-.85 2.55v9.1Zm21.53.26q-1.69 0-2.95-.68-1.26-.67-1.95-1.91t-.69-2.87v-3.9q0-1.66.69-2.89.69-1.22 1.95-1.89 1.26-.68 2.95-.68t2.95.68q1.26.67 1.95 1.89.69 1.23.69 2.89v2.52h-8.89v1.38q0 1.69.86 2.59.85.89 2.44.89 1.35 0 2.18-.48t1.02-1.44h2.34q-.24 1.79-1.76 2.85-1.52 1.05-3.78 1.05m3.3-8.4v-.96q0-1.69-.84-2.6-.85-.91-2.46-.91-1.59 0-2.44.91-.86.91-.86 2.6v.75h6.78Z"/><path fill="none" stroke="#dbdbd1" d="M40 206h810"/><path fill="#616872" d="M41.72 236v-18.98h3.45l1.9 6.08q.29.86.5 1.66.2.79.28 1.18.11-.39.3-1.18.2-.8.46-1.66l1.82-6.08h3.45V236h-2.65v-6.4q0-1.22.07-2.71.06-1.5.19-3.02l.26-2.91.24-2.43-2.81 9.23h-2.71l-2.86-9.23q.13 1.01.26 2.35t.24 2.85q.1 1.51.18 3.03t.08 2.84v6.4Zm26.36.26q-1.77 0-3.05-.66-1.29-.67-1.98-1.93t-.69-2.95v-8.42q0-1.72.69-2.97.69-1.24 1.98-1.91 1.28-.66 3.05-.66t3.05.66q1.29.67 1.98 1.91.69 1.25.69 2.94v8.45q0 1.69-.69 2.95t-1.98 1.93q-1.28.66-3.05.66m0-2.5q1.43 0 2.17-.79t.74-2.25v-8.42q0-1.48-.74-2.26t-2.17-.78q-1.4 0-2.16.78-.75.78-.75 2.26v8.42q0 1.46.75 2.25.76.79 2.16.79M86.96 236v-16.41h-5.07v-2.6h12.94v2.6h-5.07V236Zm16.43 0v-2.5h3.82v-13.98h-3.82v-2.5h10.5v2.5h-3.82v13.98h3.82v2.5Zm25.53.26q-1.77 0-3.05-.66-1.29-.67-1.98-1.93t-.69-2.95v-8.42q0-1.72.69-2.97.69-1.24 1.98-1.91 1.28-.66 3.05-.66t3.06.66 1.97 1.91.69 2.94v8.45q0 1.69-.69 2.95t-1.97 1.93q-1.29.66-3.06.66m0-2.5q1.43 0 2.17-.79t.74-2.25v-8.42q0-1.48-.74-2.26t-2.17-.78q-1.4 0-2.16.78-.75.78-.75 2.26v8.42q0 1.46.75 2.25.76.79 2.16.79m14.59 2.24v-18.98h3.53l5.54 15.78-.13-1.79q-.08-1.04-.12-2.16t-.04-2.03v-9.8h2.6V236h-3.53l-5.51-15.78.11 1.69q.07 1.01.11 2.1.04 1.1.04 2.03V236Z"/><path fill="#14171b" d="m241.3 236 4.94-18.98h3.15L254.3 236h-2.37l-1.24-5.04h-5.75l-1.25 5.04Zm4.11-7.02h4.78l-1.45-5.85q-.42-1.66-.65-2.78t-.29-1.46q-.05.34-.29 1.46t-.65 2.75Zm13.1 7.02v-14.3h2.34v2.73h.5l-.5.55q0-1.69 1.02-2.62 1.01-.92 2.8-.92 2.16 0 3.44 1.33 1.27 1.32 1.27 3.61V236h-2.34v-9.36q0-1.53-.82-2.35t-2.22-.82q-1.46 0-2.3.88-.85.89-.85 2.55v9.1Zm15.94 0v-2.13h5.07v-10.04h-4.42v-2.13h6.76v12.17h4.81V236Zm5.98-16.87q-.86 0-1.35-.45-.5-.44-.5-1.19 0-.78.5-1.24.49-.45 1.35-.45t1.35.45q.5.46.5 1.24 0 .75-.5 1.19-.49.45-1.35.45m9.65 16.87v-14.3h2.05v1.72h.47l-.37.62q0-1.2.64-1.9t1.73-.7q1.2 0 1.85.88.65.89.65 2.5l-.71-1.4h1.1l-.5.62q0-1.2.67-1.9.66-.7 1.75-.7 1.35 0 2.09 1.01.74 1.02.74 2.68V236h-2.15v-10.89q0-.89-.38-1.38-.38-.5-1.11-.5-.7 0-1.1.48-.4.49-.4 1.37V236h-1.88v-10.89q0-.91-.4-1.4t-1.13-.48-1.09.48q-.37.49-.37 1.37V236Zm20.95.26q-2.26 0-3.56-1.16-1.3-1.15-1.3-3.13 0-2 1.3-3.15 1.3-1.14 3.51-1.14h4.42v-1.43q0-1.33-.79-2.04-.8-.72-2.25-.72-1.28 0-2.13.54-.86.53-.99 1.44h-2.34q.23-1.85 1.74-2.94t3.77-1.09q2.47 0 3.9 1.27 1.43 1.28 1.43 3.46V236h-2.29v-2.73h-.39l.39-.39q0 1.56-1.21 2.47t-3.21.91m.57-1.85q1.67 0 2.73-.83 1.07-.83 1.07-2.13v-2.03h-4.37q-1.17 0-1.84.65t-.68 1.77q0 1.2.82 1.89t2.27.68m18.36 1.59q-1.85 0-2.87-.99-1.03-.99-1.03-2.78v-8.4h-4.03v-2.13h4.03v-4.03h2.34v4.03h5.72v2.13h-5.72v8.4q0 1.64 1.56 1.64h3.9V236Zm8.97 0v-2.13H344v-10.04h-4.42v-2.13h6.76v12.17h4.81V236Zm5.98-16.87q-.86 0-1.35-.45-.5-.44-.5-1.19 0-.78.5-1.24.49-.45 1.35-.45t1.35.45q.5.46.5 1.24 0 .75-.5 1.19-.49.45-1.35.45m15.73 17.08q-1.72 0-2.96-.65-1.25-.65-1.94-1.89t-.69-2.92v-3.8q0-1.71.69-2.94.69-1.22 1.94-1.87 1.24-.65 2.96-.65t2.96.65 1.94 1.87.69 2.92v3.82q0 1.69-.69 2.92-.69 1.24-1.94 1.89-1.24.65-2.96.65m0-2.08q1.53 0 2.39-.86t.86-2.52v-3.8q0-1.66-.86-2.52t-2.39-.86q-1.51 0-2.38.86t-.87 2.52v3.8q0 1.66.87 2.52t2.38.86m10.71 1.87v-14.3h2.34v2.73h.5l-.5.55q0-1.69 1.02-2.62 1.01-.92 2.8-.92 2.16 0 3.44 1.33 1.27 1.32 1.27 3.61V236h-2.34v-9.36q0-1.53-.82-2.35t-2.22-.82q-1.46 0-2.3.88-.85.89-.85 2.55v9.1Zm36.4.26q-2.26 0-3.56-1.16-1.3-1.15-1.3-3.13 0-2 1.3-3.15 1.3-1.14 3.51-1.14h4.42v-1.43q0-1.33-.79-2.04-.8-.72-2.25-.72-1.28 0-2.13.54-.86.53-.99 1.44h-2.34q.23-1.85 1.74-2.94t3.77-1.09q2.47 0 3.9 1.27 1.43 1.28 1.43 3.46V236h-2.29v-2.73h-.39l.39-.39q0 1.56-1.21 2.47t-3.21.91m.57-1.85q1.67 0 2.73-.83 1.07-.83 1.07-2.13v-2.03h-4.37q-1.17 0-1.84.65t-.68 1.77q0 1.2.82 1.89t2.27.68m16.36 1.8q-1.46 0-2.54-.46-1.08-.45-1.71-1.28-.64-.84-.77-1.98H422q.16.75.85 1.2t1.83.44h1.09q1.38 0 2.05-.56.68-.56.68-1.5 0-.91-.61-1.44t-1.81-.71l-1.92-.32q-2.11-.36-3.13-1.31-1.03-.95-1.03-2.77 0-1.92 1.22-2.98 1.22-1.05 3.67-1.05h.98q2.06 0 3.31.96 1.24.97 1.5 2.6h-2.34q-.15-.67-.78-1.07-.62-.41-1.69-.41h-.98q-1.33 0-1.94.5-.61.49-.61 1.48 0 .88.52 1.3.52.41 1.64.6l1.92.31q2.31.36 3.37 1.35 1.05.99 1.05 2.86 0 1.98-1.26 3.11t-3.81 1.13Zm31.43.05q-2.26 0-3.56-1.16-1.3-1.15-1.3-3.13 0-2 1.3-3.15 1.3-1.14 3.51-1.14h4.42v-1.43q0-1.33-.79-2.04-.8-.72-2.25-.72-1.28 0-2.13.54-.86.53-.99 1.44h-2.34q.23-1.85 1.74-2.94t3.77-1.09q2.47 0 3.9 1.27 1.43 1.28 1.43 3.46V236h-2.29v-2.73h-.39l.39-.39q0 1.56-1.21 2.47t-3.21.91m.57-1.85q1.67 0 2.73-.83 1.07-.83 1.07-2.13v-2.03h-4.37q-1.17 0-1.84.65t-.68 1.77q0 1.2.82 1.89t2.27.68m33.02 1.85q-1.71 0-3-.65t-1.99-1.88-.7-2.93v-3.9q0-1.72.7-2.94t1.99-1.87 3-.65q2.47 0 3.98 1.33 1.51 1.32 1.59 3.61h-2.34q-.08-1.38-.92-2.12t-2.31-.74q-1.53 0-2.44.87t-.91 2.48v3.93q0 1.61.91 2.5t2.44.88q1.46 0 2.31-.75.84-.76.92-2.11h2.34q-.08 2.29-1.59 3.61-1.51 1.33-3.98 1.33m16.02-.05q-1.72 0-2.96-.65-1.25-.65-1.94-1.89t-.69-2.92v-3.8q0-1.71.69-2.94.69-1.22 1.94-1.87 1.24-.65 2.96-.65t2.96.65 1.94 1.87.69 2.92v3.82q0 1.69-.69 2.92-.69 1.24-1.94 1.89-1.24.65-2.96.65m0-2.08q1.53 0 2.39-.86t.86-2.52v-3.8q0-1.66-.86-2.52t-2.39-.86q-1.51 0-2.38.86t-.87 2.52v3.8q0 1.66.87 2.52t2.38.86m10.04 1.87v-14.3h2.05v1.72h.47l-.37.62q0-1.2.64-1.9t1.73-.7q1.2 0 1.85.88.65.89.65 2.5l-.71-1.4h1.1l-.5.62q0-1.2.67-1.9.66-.7 1.75-.7 1.35 0 2.09 1.01.74 1.02.74 2.68V236h-2.15v-10.89q0-.89-.38-1.38-.38-.5-1.11-.5-.7 0-1.1.48-.4.49-.4 1.37V236h-1.88v-10.89q0-.91-.4-1.4t-1.13-.48-1.09.48q-.37.49-.37 1.37V236Zm16.79 4.68V221.7h2.34v2.73h.47l-.47.55q0-1.64 1.08-2.59t2.85-.95q2.16 0 3.44 1.42 1.29 1.41 1.29 3.88v4.19q0 1.64-.58 2.83-.59 1.2-1.64 1.85-1.06.65-2.51.65-1.74 0-2.84-.96t-1.09-2.58l.47.55h-.52l.05 3.25v4.16Zm5.49-6.45q1.48 0 2.33-.88.84-.89.84-2.55v-3.9q0-1.66-.84-2.55-.85-.88-2.33-.88-1.43 0-2.29.91t-.86 2.52v3.9q0 1.61.86 2.52t2.29.91m16.04 1.98q-1.72 0-2.96-.65-1.25-.65-1.94-1.89t-.69-2.92v-3.8q0-1.71.69-2.94.69-1.22 1.94-1.87 1.24-.65 2.96-.65t2.96.65 1.94 1.87.69 2.92v3.82q0 1.69-.69 2.92-.69 1.24-1.94 1.89-1.24.65-2.96.65m0-2.08q1.53 0 2.39-.86t.86-2.52v-3.8q0-1.66-.86-2.52t-2.39-.86q-1.51 0-2.38.86t-.87 2.52v3.8q0 1.66.87 2.52t2.38.86m15.68 2.08q-1.46 0-2.54-.46-1.08-.45-1.71-1.28-.64-.84-.77-1.98h2.34q.16.75.85 1.2t1.83.44h1.09q1.38 0 2.05-.56.68-.56.68-1.5 0-.91-.61-1.44t-1.81-.71l-1.92-.32q-2.11-.36-3.13-1.31-1.03-.95-1.03-2.77 0-1.92 1.22-2.98 1.22-1.05 3.67-1.05h.98q2.06 0 3.31.96 1.24.97 1.5 2.6h-2.34q-.15-.67-.78-1.07-.62-.41-1.69-.41h-.98q-1.33 0-1.94.5-.61.49-.61 1.48 0 .88.52 1.3.52.41 1.64.6l1.92.31q2.31.36 3.37 1.35 1.05.99 1.05 2.86 0 1.98-1.26 3.11t-3.81 1.13Zm15.31.05q-2.26 0-3.56-1.16-1.3-1.15-1.3-3.13 0-2 1.3-3.15 1.3-1.14 3.51-1.14h4.42v-1.43q0-1.33-.79-2.04-.8-.72-2.25-.72-1.28 0-2.13.54-.86.53-.99 1.44h-2.34q.23-1.85 1.74-2.94t3.77-1.09q2.47 0 3.9 1.27 1.43 1.28 1.43 3.46V236h-2.29v-2.73h-.39l.39-.39q0 1.56-1.21 2.47t-3.21.91m.57-1.85q1.67 0 2.73-.83 1.07-.83 1.07-2.13v-2.03h-4.37q-1.17 0-1.84.65t-.68 1.77q0 1.2.82 1.89t2.27.68m17.63 1.85q-1.77 0-2.83-.95-1.07-.95-1.07-2.59l.47.55h-.47V236h-2.34v-18.98h2.34v4.16l-.05 3.25h.52l-.47.55q0-1.62 1.08-2.58t2.82-.96q2.16 0 3.46 1.43t1.3 3.9v4.19q0 2.44-1.3 3.87t-3.46 1.43m-.78-2.03q1.48 0 2.34-.88.86-.89.86-2.55v-3.9q0-1.66-.86-2.55t-2.34-.88q-1.43 0-2.27.91t-.85 2.52v3.9q0 1.61.85 2.52.84.91 2.27.91m18.02 1.77q-1.25 0-2.18-.49-.94-.5-1.46-1.41t-.52-2.13v-12.82h-4.81v-2.13h7.15v14.95q0 .88.49 1.39.5.51 1.33.51h4.55V236Zm14.17.26q-1.69 0-2.95-.68-1.26-.67-1.95-1.91t-.69-2.87v-3.9q0-1.66.69-2.89.69-1.22 1.95-1.89 1.26-.68 2.95-.68t2.95.68q1.26.67 1.95 1.89.69 1.23.69 2.89v2.52h-8.89v1.38q0 1.69.86 2.59.85.89 2.44.89 1.35 0 2.18-.48t1.02-1.44h2.34q-.24 1.79-1.76 2.85-1.52 1.05-3.78 1.05m3.3-8.4v-.96q0-1.69-.84-2.6-.85-.91-2.46-.91-1.59 0-2.44.91-.86.91-.86 2.6v.75h6.78Zm28.5 8.35q-1.46 0-2.54-.46-1.08-.45-1.71-1.28-.64-.84-.77-1.98h2.34q.16.75.85 1.2t1.83.44h1.09q1.38 0 2.05-.56.68-.56.68-1.5 0-.91-.61-1.44t-1.81-.71l-1.92-.32q-2.11-.36-3.13-1.31-1.03-.95-1.03-2.77 0-1.92 1.22-2.98 1.22-1.05 3.67-1.05h.98q2.06 0 3.31.96 1.24.97 1.5 2.6h-2.34q-.15-.67-.78-1.07-.62-.41-1.69-.41h-.98q-1.33 0-1.94.5-.61.49-.61 1.48 0 .88.52 1.3.52.41 1.64.6l1.92.31q2.31.36 3.37 1.35 1.05.99 1.05 2.86 0 1.98-1.26 3.11t-3.81 1.13Zm13.39 4.47 2.1-5.56-5.3-13.42h2.6l3.33 8.84q.18.44.34 1.05l.26 1.03.26-1.03q.15-.61.31-1.05l3.12-8.84h2.52l-7.05 18.98Zm18.85-4.47q-1.46 0-2.54-.46-1.08-.45-1.71-1.28-.64-.84-.77-1.98h2.34q.16.75.85 1.2t1.83.44h1.09q1.38 0 2.05-.56.68-.56.68-1.5 0-.91-.61-1.44t-1.81-.71l-1.92-.32q-2.11-.36-3.13-1.31-1.03-.95-1.03-2.77 0-1.92 1.22-2.98 1.22-1.05 3.67-1.05h.98q2.06 0 3.31.96 1.24.97 1.5 2.6h-2.34q-.15-.67-.78-1.07-.62-.41-1.69-.41h-.98q-1.33 0-1.94.5-.61.49-.61 1.48 0 .88.52 1.3.52.41 1.64.6l1.92.31q2.31.36 3.37 1.35 1.05.99 1.05 2.86 0 1.98-1.26 3.11t-3.81 1.13Zm18.12-.21q-1.85 0-2.87-.99-1.03-.99-1.03-2.78v-8.4h-4.03v-2.13h4.03v-4.03h2.34v4.03H721v2.13h-5.72v8.4q0 1.64 1.56 1.64h3.9V236Zm14.56.26q-1.69 0-2.95-.68-1.26-.67-1.95-1.91t-.69-2.87v-3.9q0-1.66.69-2.89.69-1.22 1.95-1.89 1.26-.68 2.95-.68t2.95.68q1.26.67 1.95 1.89.69 1.23.69 2.89v2.52h-8.89v1.38q0 1.69.86 2.59.85.89 2.44.89 1.35 0 2.18-.48t1.02-1.44h2.34q-.24 1.79-1.76 2.85-1.52 1.05-3.78 1.05m3.3-8.4v-.96q0-1.69-.84-2.6-.85-.91-2.46-.91-1.59 0-2.44.91-.86.91-.86 2.6v.75h6.78Zm6.74 8.14v-14.3h2.05v1.72h.47l-.37.62q0-1.2.64-1.9t1.73-.7q1.2 0 1.85.88.65.89.65 2.5l-.71-1.4h1.1l-.5.62q0-1.2.67-1.9.66-.7 1.75-.7 1.35 0 2.09 1.01.74 1.02.74 2.68V236h-2.15v-10.89q0-.89-.38-1.38-.38-.5-1.11-.5-.7 0-1.1.48-.4.49-.4 1.37V236h-1.88v-10.89q0-.91-.4-1.4t-1.13-.48-1.09.48q-.37.49-.37 1.37V236Z"/></svg>