<svg xmlns="http://www.w3.org/2000/svg" aria-labelledby="hdu-focus-light-title hdu-focus-light-desc" role="img" viewBox="0 0 890 268"><title id="hdu-focus-light-title">Focus - four engineering domains</title><desc id="hdu-focus-light-desc">Four domains of practice. Interface: Component architecture in React. Systems: Transactional, idempotent services. Data: Local-first persistence and offline. Motion: Animation as a composable system.</desc><path fill="#fafaf7" d="M0 0h890v268H0z"/><rect width="889" height="267" x=".5" y=".5" fill="none" stroke="#dbdbd1" rx="2"/><path fill="#474d55" d="M47.8 34.3q-1.8 0-3.1-.7t-2-2-.8-3v-8.2q0-1.7.7-3 .8-1.2 2-2 1.4-.6 3.2-.6t3.1.7 2 2 .8 2.9v8.2q0 1.7-.7 3-.8 1.3-2 2-1.4.7-3.2.7m0-2.5q1.5 0 2.3-.8.9-1 .9-2.4v-8.2q0-1.4-.9-2.3-.8-1-2.3-1t-2.3 1q-.9.8-.9 2.3v8.2q0 1.5.9 2.4t2.3.8m0-5.7q-.7 0-1.2-.5t-.4-1.2.4-1.1 1.2-.5 1.2.4.4 1.2q0 .8-.4 1.3t-1.2.4M62.5 34v-2.5h5v-14l-5 3.7v-3L67 15h3.5v16.5h4V34Z"/><path fill="#616872" d="M100.2 34V15h11.4v2.6H103v5.7h8v2.6h-8V34Zm25.8.3q-1.8 0-3-.7-1.4-.7-2-2-.8-1.2-.8-2.9v-8.4q0-1.7.7-3 .7-1.2 2-1.9t3-.6 3.1.6 2 2 .7 2.9v8.4q0 1.7-.7 3-.7 1.2-2 1.9t-3 .7m0-2.5q1.4 0 2.1-.8t.8-2.3v-8.4q0-1.5-.8-2.3-.7-.7-2.1-.7t-2.2.7-.7 2.3v8.4q0 1.5.7 2.3.8.8 2.2.8m20.3 2.5q-1.7 0-3-.7t-2-2q-.8-1.2-.8-2.9v-8.4q0-1.7.7-3 .8-1.2 2-1.9 1.4-.6 3.1-.6t3.1.6 2 2 .7 2.9h-2.8q0-1.5-.7-2.3-.8-.7-2.3-.7t-2.2.7-.8 2.3v8.4q0 1.5.8 2.3t2.2.8 2.3-.8.7-2.3h2.8q0 1.7-.7 3-.7 1.2-2 1.9t-3 .7m20.2 0q-2.7 0-4.2-1.5t-1.5-4.1V15h2.8v13.7q0 1.4.8 2.3.7.8 2.1.8t2.2-.8.7-2.3V15h2.8v13.7q0 2.6-1.5 4-1.4 1.6-4.2 1.6m20.4 0q-2 0-3.3-.7-1.4-.6-2.2-1.8-.7-1.2-.7-2.8h2.8q0 1.3.9 2 .9.8 2.5.8 1.5 0 2.4-.8.8-.7.8-2 0-1-.6-1.8t-1.6-1l-2.4-.8q-2.1-.6-3.2-2-1.2-1.5-1.2-3.5 0-1.5.7-2.7t2-1.8 3.1-.7q2.6 0 4.2 1.4 1.5 1.4 1.6 3.8H190q0-1.2-.8-2-.8-.7-2.2-.7t-2.2.7-.8 1.9q0 1 .6 1.8t1.7 1l2.4.8q2 .6 3.2 2 1.1 1.5 1.1 3.5 0 1.6-.7 2.8-.8 1.2-2.1 1.9t-3.2.7"/><path fill="none" stroke="#dbdbd1" d="M40 52h810"/><path fill="#616872" d="M42.6 98v-2.5h3.8v-14h-3.9V79H53v2.5h-3.8v14H53V98Zm19.8 0V79h3.5l5.6 15.8-.2-1.8v-2.2l-.1-2V79h2.6v19h-3.6l-5.5-15.8.1 1.7.2 2.1v12ZM87 98V81.6h-5.1V79h13v2.6h-5.1V98Zm16.3 0V79h11.1v2.5H106V87h7.5v2.5H106v6.1h8.4V98Zm20 0V79h6q1.8 0 3 .7 1.4.7 2.1 2 .8 1.2.8 2.9 0 1.9-1 3.3t-2.6 2l3.8 8.1h-3.2l-3.4-7.8H126V98Zm2.8-10.3h3.2q1.4 0 2.2-.8t.8-2.3-.8-2.2-2.2-.9H126ZM143.7 98V79h11.5v2.6h-8.8v5.7h8v2.6h-8V98Zm19.1 0 4.8-19h3.7l4.9 19h-2.9l-1.1-4.8h-5.4l-1.1 4.8Zm4.5-7.1h4.3l-1.3-5.5-.5-2.5-.3-1.5-.3 1.5-.6 2.5Zm22.6 7.4q-1.8 0-3.1-.7t-2-2-.8-2.9v-8.4q0-1.7.8-3 .7-1.2 2-1.9t3-.6 3.1.6 2 2q.8 1.2.8 2.9h-2.8q0-1.5-.8-2.3t-2.2-.7-2.3.7-.7 2.3v8.4q0 1.5.7 2.3.8.8 2.3.8t2.2-.8.8-2.3h2.8q0 1.7-.7 3-.8 1.2-2 1.9-1.4.7-3.1.7m14.8-.3V79h11.1v2.5h-8.4V87h7.5v2.5h-7.5v6.1h8.4V98Z"/><path fill="#14171b" d="M247.9 98.3q-1.7 0-3-.7-1.2-.6-2-1.9-.6-1.2-.6-2.9v-8.6q0-1.7.7-3 .7-1.1 2-1.8 1.2-.6 2.9-.6t3 .6 1.9 2 .7 2.8H251q0-1.6-.8-2.5t-2.4-.8-2.4.8-.9 2.5v8.6q0 1.6.9 2.5t2.4.9 2.4-1 .8-2.4h2.4q0 1.7-.7 2.9t-2 1.9-2.9.7m16 0q-1.7 0-3-.7-1.2-.7-1.9-2-.7-1.2-.7-2.8V89q0-1.8.7-3t2-1.9q1.2-.6 3-.6 1.6 0 2.9.6t2 2q.6 1.1.6 2.8v3.8q0 1.7-.7 3-.7 1.2-2 1.9-1.2.6-2.9.6m0-2.2q1.6 0 2.4-.8.9-.9.9-2.5V89q0-1.7-.9-2.6-.9-.8-2.4-.8t-2.4.8-.8 2.5v3.8q0 1.7.8 2.6 1 .8 2.4.8m10 1.9V83.7h2.1v1.7h.5l-.4.6q0-1.2.6-1.9t1.8-.7 1.8 1q.7.8.7 2.4l-.7-1.4h1l-.4.6q0-1.2.6-1.9t1.8-.7q1.3 0 2 1 .8 1 .8 2.7V98h-2V87.1q0-.9-.4-1.4t-1.1-.5-1.1.5-.4 1.4V98h-2V87.1q0-.9-.4-1.4t-1.1-.5-1.1.5-.4 1.4V98Zm16.9 4.7v-19h2.3v2.7h.5l-.5.6q0-1.7 1-2.6 1.1-1 3-1 2 0 3.4 1.5 1.3 1.4 1.3 3.8V93q0 1.7-.6 2.9t-1.7 1.8-2.5.7q-1.7 0-2.8-1t-1.1-2.6l.5.6h-.6v7.4Zm5.4-6.5q1.5 0 2.4-.9t.8-2.5v-3.9q0-1.7-.8-2.6-.9-.8-2.4-.8-1.4 0-2.2.9-1 .9-1 2.5v3.9q0 1.6 1 2.5.8 1 2.2 1m16 2q-1.6 0-2.9-.6t-2-2-.6-2.8V89q0-1.8.7-3t2-1.9q1.2-.6 2.9-.6t3 .6 1.9 2 .7 2.8v3.8q0 1.7-.7 3-.7 1.2-2 1.9-1.2.6-3 .6m0-2q1.6 0 2.5-1 .8-.8.8-2.5V89q0-1.7-.8-2.6-.9-.8-2.4-.8t-2.4.8-.9 2.5v3.8q0 1.7.9 2.6.9.8 2.4.8M323 98V83.7h2.3v2.7h.5l-.5.6q0-1.7 1-2.6t2.8-1q2.2 0 3.5 1.4t1.3 3.6V98h-2.4v-9.4q0-1.5-.8-2.3t-2.2-.8q-1.5 0-2.3.8-.9 1-.9 2.6V98Zm21.5.3q-1.7 0-3-.7-1.2-.7-1.9-2-.7-1.2-.7-2.8v-3.9q0-1.7.7-2.9t2-1.9 3-.7 2.9.7 2 2q.6 1.1.6 2.8v2.5h-8.9v1.4q0 1.7.9 2.6t2.4.9q1.4 0 2.2-.5t1-1.4h2.4q-.3 1.8-1.8 2.8t-3.8 1m3.3-8.4v-1q0-1.7-.8-2.6t-2.5-1-2.4 1-.9 2.6v.8h6.8Zm7.4 8.1V83.7h2.4v2.7h.5l-.5.6q0-1.7 1-2.6t2.8-1q2.2 0 3.4 1.4 1.3 1.3 1.3 3.6V98h-2.3v-9.4q0-1.5-.9-2.3t-2.2-.8-2.3.8q-.8 1-.8 2.6V98Zm23.1 0q-1.8 0-2.9-1t-1-2.8v-8.4h-4v-2.1h4v-4h2.4v4h5.7v2.1h-5.7v8.4q0 1.7 1.5 1.7h4V98Zm29.4.3q-2.2 0-3.5-1.2t-1.3-3.1 1.3-3.2 3.5-1.1h4.4v-1.5q0-1.3-.8-2t-2.2-.7-2.2.5-1 1.5h-2.3q.3-1.9 1.8-3 1.5-1 3.7-1 2.5 0 4 1.2 1.4 1.3 1.4 3.5V98h-2.3v-2.7h-.4l.4-.4q0 1.5-1.2 2.4-1.2 1-3.2 1m.6-1.9q1.7 0 2.8-.8t1-2.1v-2h-4.4q-1.1 0-1.8.6t-.7 1.7.9 2q.8.6 2.2.6m12 1.6V83.7h2.2v2.7h.5l-.7 1.7q0-2.3 1-3.5t3-1.2q2.2 0 3.6 1.5 1.3 1.4 1.3 3.8v.8H429V89q0-1.7-.8-2.6t-2.4-.9-2.3 1q-.8.8-.8 2.5v9Zm21 .3q-1.7 0-3-.7-1.2-.6-2-1.9-.7-1.2-.7-2.9v-3.9q0-1.7.8-3 .7-1.2 2-1.8 1.2-.7 3-.7 2.4 0 4 1.4 1.4 1.3 1.5 3.6h-2.3q-.1-1.4-1-2.1t-2.3-.8-2.4.9-1 2.5v3.9q0 1.6 1 2.5t2.4.9 2.3-.8 1-2h2.3q0 2.2-1.6 3.5-1.5 1.4-4 1.4M452 98V79h2.4v7.4h.5l-.5.6q0-1.7 1-2.6t2.8-1q2.2 0 3.4 1.4 1.3 1.3 1.3 3.6V98h-2.3v-9.4q0-1.5-.8-2.3-.9-.9-2.3-.9t-2.3 1q-.8.8-.8 2.5V98Zm16 0v-2.1h5v-10h-4.4v-2.2h6.8v12.2h4.8V98Zm6-16.9q-.9 0-1.4-.4t-.5-1.2.5-1.2 1.4-.5 1.3.5.5 1.2-.5 1.2-1.3.4M491.2 98q-1.9 0-3-1-1-1-1-2.8v-8.4h-4v-2.1h4v-4h2.4v4h5.7v2.1h-5.7v8.4q0 1.7 1.6 1.7h3.9V98Zm14.5.3q-1.7 0-3-.7-1.2-.7-1.9-2-.7-1.2-.7-2.8v-3.9q0-1.7.7-2.9t2-1.9 3-.7 2.9.7 2 2q.6 1.1.6 2.8v2.5h-8.9v1.4q0 1.7.9 2.6t2.4.9q1.4 0 2.2-.5t1-1.4h2.4q-.3 1.8-1.8 2.8t-3.8 1m3.3-8.4v-1q0-1.7-.8-2.6t-2.5-1-2.4 1-.9 2.6v.8h6.8Zm13 8.4q-1.8 0-3-.7-1.4-.6-2-1.9t-.7-2.9v-3.9q0-1.7.7-3 .6-1.2 2-1.8 1.2-.7 3-.7 2.4 0 4 1.4 1.4 1.3 1.5 3.6h-2.3q-.1-1.4-1-2.1t-2.3-.8-2.4.9-1 2.5v3.9q0 1.6 1 2.5t2.4.9 2.4-.8.9-2h2.3q0 2.2-1.6 3.5-1.5 1.4-4 1.4m17.5-.3q-1.8 0-2.9-1t-1-2.8v-8.4h-4v-2.1h4v-4h2.4v4h5.7v2.1H538v8.4q0 1.7 1.5 1.7h4V98Zm14.5.3q-2.4 0-3.9-1.5t-1.5-4v-9.1h2.4v9.1q0 1.6.8 2.5.8 1 2.3 1t2.3-1 .8-2.5v-9.1h2.3v9.1q0 2.5-1.5 4t-4 1.5m11.3-.3V83.7h2.3v2.7h.5l-.7 1.7q0-2.3 1-3.5t3-1.2q2.2 0 3.6 1.5 1.3 1.4 1.3 3.8v.8h-2.4V89q0-1.7-.8-2.6t-2.3-.9-2.3 1q-.9.8-.9 2.5v9Zm21 .3q-1.7 0-3-.7-1.2-.7-1.9-2-.7-1.2-.7-2.8v-3.9q0-1.7.7-2.9t2-1.9 3-.7 2.9.7 2 2q.6 1.1.6 2.8v2.5H583v1.4q0 1.7.9 2.6t2.4.9q1.4 0 2.2-.5t1-1.4h2.4q-.3 1.8-1.8 2.8t-3.8 1m3.3-8.4v-1q0-1.7-.8-2.6t-2.5-1-2.4 1-.9 2.6v.8h6.8ZM613 98v-2.1h5v-10h-4.4v-2.2h6.8v12.2h4.8V98Zm6-16.9q-1 0-1.4-.4-.5-.5-.5-1.2 0-.8.5-1.2.5-.5 1.4-.5t1.3.5.5 1.2q0 .7-.5 1.2t-1.3.4M629.3 98V83.7h2.3v2.7h.5l-.5.6q0-1.7 1-2.6t2.8-1q2.2 0 3.5 1.4t1.2 3.6V98h-2.3v-9.4q0-1.5-.8-2.3t-2.2-.8-2.3.8q-.9 1-.9 2.6V98Zm32.2 0V79h5.9q1.7 0 3 .7 1.2.7 2 2 .6 1.1.6 2.8 0 1.9-1 3.3t-2.7 1.9l4 8.3h-2.8l-3.6-8h-3v8Zm2.4-10.2h3.5q1.4 0 2.3-.9 1-1 1-2.4 0-1.5-1-2.5t-2.3-.9h-3.5ZM683 98.3q-1.6 0-3-.7-1.2-.7-1.9-2-.6-1.2-.6-2.8v-3.9q0-1.7.6-2.9t2-1.9 3-.7 2.9.7 2 2q.6 1.1.6 2.8v2.5h-8.9v1.4q0 1.7.9 2.6t2.4.9q1.4 0 2.2-.5t1-1.4h2.4q-.3 1.8-1.8 2.8t-3.8 1m3.3-8.4v-1q0-1.7-.8-2.6t-2.5-1q-1.5 0-2.4 1t-.9 2.6v.8h6.8Zm11.6 8.4q-2.2 0-3.5-1.2-1.4-1-1.4-3t1.4-3.2 3.5-1.1h4.4v-1.5q0-1.3-.8-2t-2.3-.7q-1.2 0-2 .5-1 .6-1 1.5h-2.4q.2-1.9 1.7-3 1.5-1 3.8-1 2.5 0 3.9 1.2 1.4 1.3 1.4 3.5V98h-2.3v-2.7h-.4l.4-.4q0 1.5-1.2 2.4-1.2 1-3.2 1m.6-1.9q1.6 0 2.7-.8 1-.8 1-2.1v-2H698q-1.2 0-1.8.6t-.7 1.7.8 2q.8.6 2.3.6m16.9 1.9q-1.7 0-3-.7t-2-1.9-.7-2.9v-3.9q0-1.7.7-3 .7-1.2 2-1.8t3-.7q2.5 0 4 1.4t1.6 3.6h-2.4q0-1.4-1-2.1-.8-.8-2.2-.8t-2.5.9-.9 2.5v3.9q0 1.6 1 2.5t2.4.9 2.3-.8q.8-.7 1-2h2.3q-.1 2.2-1.6 3.5-1.5 1.4-4 1.4M733 98q-1.9 0-3-1-1-1-1-2.8v-8.4h-4v-2.1h4v-4h2.4v4h5.7v2.1h-5.7v8.4q0 1.7 1.6 1.7h3.9V98Z"/><path fill="none" stroke="#dbdbd1" d="M40 114h810"/><path fill="#616872" d="M47.9 144.3q-2 0-3.3-.7-1.4-.6-2.2-1.8-.7-1.2-.7-2.8h2.8q0 1.3.9 2 .9.8 2.5.8 1.5 0 2.4-.8.8-.7.8-2 0-1-.6-1.8t-1.6-1l-2.4-.8q-2.1-.6-3.2-2-1.2-1.5-1.2-3.5 0-1.5.7-2.7t2-1.8q1.3-.7 3.1-.7 2.6 0 4.2 1.4 1.5 1.4 1.6 3.8h-2.8q0-1.2-.8-2-.8-.7-2.2-.7t-2.2.7-.8 1.8.6 1.9 1.7 1l2.4.8q2 .6 3.2 2 1.1 1.5 1.1 3.5 0 1.6-.7 2.8-.8 1.2-2.2 1.9-1.3.7-3.1.7m18.8-.3v-7L61 125h3l3.3 7.2.5 1.3q.3.6.3 1 0-.4.3-1l.5-1.3 3.3-7.2h3l-5.7 12v7Zm21.7.3q-1.9 0-3.3-.7t-2.1-1.8-.7-2.8H85q0 1.3 1 2 .8.8 2.5.8 1.5 0 2.3-.8.9-.7.9-2 0-1-.6-1.8t-1.7-1l-2.4-.8q-2-.6-3.2-2-1.1-1.5-1.1-3.5 0-1.5.7-2.7t2-1.8q1.3-.7 3-.7 2.7 0 4.2 1.4 1.6 1.4 1.6 3.8h-2.8q0-1.2-.8-2-.8-.7-2.2-.7t-2.2.7-.7 1.8.6 1.9 1.6 1l2.5.8q2 .6 3.1 2 1.2 1.5 1.2 3.5 0 1.6-.8 2.8-.7 1.2-2 1.9t-3.3.7m18.8-.3v-16.4h-5V125h13v2.6H110V144Zm16.4 0v-19h11.1v2.5h-8.4v5.4h7.5v2.5h-7.5v6.1h8.4v2.5Zm19.5 0v-19h3.5l1.9 6.1.5 1.7.3 1.1.3-1.1.4-1.7 1.8-6h3.5V144h-2.7v-6.4l.1-2.7.2-3 .3-3q0-1.3.2-2.4l-2.8 9.3h-2.7l-2.9-9.3.3 2.4.2 2.8.2 3v9.3Zm26.5.3q-2 0-3.3-.7-1.4-.6-2.2-1.8-.7-1.2-.7-2.8h2.8q0 1.3.9 2 .9.8 2.5.8 1.5 0 2.3-.8 1-.7 1-2 0-1-.7-1.8t-1.6-1l-2.4-.8q-2.1-.6-3.3-2-1-1.5-1-3.5 0-1.5.6-2.7t2-1.8q1.3-.7 3-.7 2.7 0 4.3 1.4t1.6 3.8h-2.8q0-1.2-.8-2-.8-.7-2.3-.7-1.3 0-2.1.7t-.8 1.8.6 1.9 1.7 1l2.4.8q2 .6 3.2 2 1 1.5 1 3.5 0 1.6-.7 2.8t-2 1.9-3.2.7"/><path fill="#14171b" d="M246.6 144v-16.9h-5.2V125h12.8v2.1H249V144Zm12.4 0v-14.3h2.3v2.7h.5l-.7 1.7q0-2.3 1-3.5t3-1.2q2.2 0 3.6 1.5 1.3 1.4 1.3 3.8v.9h-2.3v-.7q0-1.7-.9-2.6t-2.3-.9-2.3 1q-.8.8-.8 2.5v9.1Zm19.8.3q-2.3 0-3.6-1.2T274 140t1.3-3.2 3.5-1.1h4.5v-1.4q0-1.4-.8-2-.8-.8-2.3-.8-1.3 0-2.1.5t-1 1.5h-2.3q.2-1.9 1.7-3 1.5-1 3.8-1 2.4 0 3.9 1.2 1.4 1.3 1.4 3.5v9.8h-2.3v-2.7h-.4l.4-.4q0 1.5-1.2 2.4-1.2 1-3.2 1m.6-1.9q1.6 0 2.7-.8 1-.8 1-2.2v-2h-4.3q-1.2 0-1.9.7t-.6 1.7.8 2q.8.6 2.3.6m11.4 1.6v-14.3h2.3v2.7h.5l-.5.6q0-1.7 1-2.6t2.8-1q2.2 0 3.5 1.4t1.2 3.6v9.6h-2.3v-9.4q0-1.5-.8-2.3t-2.3-.8-2.3.8q-.8 1-.8 2.6v9.1Zm21 .2q-1.4 0-2.5-.4-1-.5-1.7-1.3t-.8-2h2.4q.1.7.8 1.2t1.8.4h1.1q1.4 0 2-.5.8-.6.8-1.5t-.6-1.5-1.9-.7l-1.9-.3q-2-.4-3.1-1.3-1-1-1-2.8 0-1.9 1.2-3 1.2-1 3.7-1h1q2 0 3.2 1t1.5 2.6h-2.3q-.1-.7-.8-1.1-.6-.4-1.7-.4h-1q-1.3 0-1.9.5t-.6 1.5q0 .8.5 1.3t1.7.5l1.9.4q2.3.3 3.3 1.3 1.1 1 1.1 2.9 0 2-1.3 3-1.2 1.2-3.8 1.2Zm15.3 0q-2.2 0-3.5-1.1t-1.3-3.1 1.3-3.2 3.5-1.1h4.4v-1.4q0-1.4-.8-2-.8-.8-2.2-.8-1.3 0-2.1.5-1 .6-1 1.5H323q.3-1.9 1.8-3 1.5-1 3.7-1 2.5 0 4 1.2 1.4 1.3 1.4 3.5v9.8h-2.3v-2.7h-.4l.4-.4q0 1.5-1.2 2.4-1.2 1-3.2 1m.6-1.8q1.7 0 2.8-.8t1-2.2v-2h-4.4q-1.1 0-1.8.7t-.7 1.7.8 2q.9.6 2.3.6m17 1.9q-1.8 0-3-.7-1.4-.6-2-1.9-.8-1.2-.8-2.9V135q0-1.7.7-3 .7-1.2 2-1.8t3-.7q2.5 0 4 1.4t1.6 3.6H348q-.1-1.4-1-2.1t-2.3-.8-2.4.9-1 2.5v3.9q0 1.6 1 2.5t2.4.9 2.3-.8q.9-.7 1-2h2.3q0 2.2-1.6 3.5-1.5 1.4-4 1.4m17.5-.3q-1.8 0-2.9-1t-1-2.8v-8.4h-4v-2.1h4v-4h2.3v4h5.8v2.1h-5.8v8.4q0 1.7 1.6 1.7h3.9v2.1Zm9 0V142h5v-10h-4.4v-2.2h6.8V142h4.8v2.1Zm6-16.9q-1 0-1.4-.4-.5-.5-.5-1.2 0-.8.5-1.2.5-.5 1.3-.5 1 0 1.4.5.5.4.5 1.2t-.5 1.2-1.4.4m15.7 17.1q-1.7 0-3-.6-1.2-.7-2-2-.6-1.2-.6-2.8V135q0-1.7.7-2.9t2-1.9 2.9-.6 3 .6 1.9 2q.7 1.1.7 2.8v3.8q0 1.7-.7 3-.7 1.2-2 1.9-1.2.6-3 .6m0-2q1.5 0 2.4-1 .8-.8.8-2.4V135q0-1.6-.8-2.5t-2.4-.8-2.4.8-.9 2.5v3.8q0 1.7.9 2.6.9.8 2.4.8m10.7 1.8v-14.3h2.3v2.7h.5l-.5.6q0-1.7 1-2.6t2.9-1q2.1 0 3.4 1.4t1.3 3.6v9.6H412v-9.4q0-1.5-.8-2.3t-2.2-.8q-1.5 0-2.3.8-.9 1-.9 2.6v9.1Zm20.3.3q-2.3 0-3.6-1.2T419 140t1.3-3.2 3.5-1.1h4.4v-1.4q0-1.4-.7-2-.9-.8-2.3-.8t-2.1.5q-.9.6-1 1.5h-2.4q.3-1.9 1.8-3 1.5-1 3.8-1 2.4 0 3.8 1.2 1.5 1.3 1.5 3.5v9.8h-2.3v-2.7h-.4l.4-.4q0 1.5-1.2 2.4-1.2 1-3.2 1m.5-1.9q1.7 0 2.8-.8t1-2.2v-2H424q-1.2 0-1.9.7t-.6 1.7.8 2q.8.6 2.2.6m18.8 1.6q-1.3 0-2.2-.5t-1.4-1.4-.6-2.1v-12.8h-4.8V125h7.2v15q0 .8.5 1.4t1.3.5h4.5v2.1Zm10.7 4.2 2-8.1h3.4l-3.4 8Zm30-4.2v-2.1h5v-10h-4.3v-2.2h6.7v12.2h4.8v2.1Zm6-16.9q-.9 0-1.4-.4t-.5-1.2.5-1.2 1.4-.5 1.3.5.5 1.2-.5 1.2-1.3.4m14.9 17.2q-2.1 0-3.5-1.5-1.3-1.4-1.3-3.8v-4.2q0-2.5 1.3-4 1.3-1.4 3.5-1.4 1.8 0 2.8 1t1 2.6l-.4-.6h.5V125h2.3v19h-2.3v-2.7h-.5l.5-.6q0 1.7-1 2.6-1.1 1-3 1m.8-2q1.4 0 2.3-1t.8-2.5v-3.9q0-1.6-.8-2.5-.9-1-2.3-1-1.5 0-2.4 1-.8.8-.8 2.5v3.9q0 1.7.8 2.5.9 1 2.4 1m16.1 2q-1.6 0-3-.7-1.2-.7-1.9-2-.6-1.2-.6-2.8v-3.9q0-1.7.6-2.9t2-1.9 3-.7 2.9.7 2 2q.6 1.1.6 2.8v2.5h-8.9v1.4q0 1.7.9 2.6t2.4.9q1.4 0 2.2-.5t1-1.4h2.4q-.3 1.8-1.8 2.8t-3.8 1m3.3-8.4v-1q0-1.7-.8-2.6t-2.5-1q-1.5 0-2.4 1t-.9 2.6v.8h6.8Zm6.8 8.1v-14.3h2v1.7h.5l-.4.6q0-1.2.7-1.9t1.7-.7q1.2 0 1.9 1 .6.8.6 2.4l-.7-1.4h1l-.4.6q0-1.2.7-1.9t1.7-.7q1.4 0 2.1 1t.7 2.7v11H542v-10.9q0-.9-.4-1.4t-1.1-.5-1.1.5-.4 1.4V144h-2v-10.9q0-.9-.4-1.4t-1.1-.5-1.1.5-.4 1.4V144Zm16.8 4.7v-19h2.3v2.7h.5l-.5.6q0-1.7 1-2.6 1.2-1 3-1 2.1 0 3.4 1.5 1.3 1.4 1.3 3.8v4.2q0 1.7-.6 2.9t-1.6 1.8-2.6.7q-1.7 0-2.8-1t-1-2.6l.4.6h-.5v7.4Zm5.5-6.5q1.4 0 2.3-.8.8-1 .8-2.6v-3.9q0-1.7-.8-2.6-.9-.8-2.3-.8-1.5 0-2.3.9-.9.9-.9 2.5v3.9q0 1.6.9 2.5.8 1 2.3 1m16 2q-1.7 0-3-.6-1.2-.7-1.9-2-.7-1.2-.7-2.8v-3.9q0-1.7.7-2.9t2-1.9 2.9-.6 3 .6 1.9 2q.7 1.1.7 2.8v3.8q0 1.7-.7 3-.7 1.2-2 1.9-1.2.6-2.9.6m0-2q1.5 0 2.4-1 .9-.8.9-2.4v-3.9q0-1.6-1-2.5-.8-.8-2.3-.8t-2.4.8-.8 2.5v3.8q0 1.7.8 2.6.9.8 2.4.8m17.7 1.8q-1.9 0-2.9-1t-1-2.8v-8.4h-4v-2.1h4v-4h2.3v4h5.7v2.1h-5.7v8.4q0 1.7 1.6 1.7h3.9v2.1Zm14.5.3q-1.6 0-3-.7-1.2-.7-1.9-2-.6-1.2-.6-2.8v-3.9q0-1.7.6-2.9t2-1.9 3-.7 2.9.7 2 2q.6 1.1.6 2.8v2.5H599v1.4q0 1.7.9 2.6t2.4.9q1.4 0 2.2-.5t1-1.4h2.4q-.3 1.8-1.8 2.8t-3.8 1m3.3-8.4v-1q0-1.7-.8-2.6t-2.5-1q-1.5 0-2.4 1t-.9 2.6v.8h6.8Zm7.4 8.1v-14.3h2.4v2.7h.5l-.5.6q0-1.7 1-2.6t2.8-1q2.2 0 3.5 1.4t1.2 3.6v9.6h-2.3v-9.4q0-1.5-.8-2.3t-2.3-.8-2.3.8q-.8 1-.8 2.6v9.1Zm23.1 0q-1.8 0-2.8-1t-1-2.8v-8.4h-4v-2.1h4v-4h2.3v4h5.7v2.1h-5.7v8.4q0 1.7 1.5 1.7h4v2.1Zm30.3.2q-1.5 0-2.6-.4-1-.5-1.7-1.3t-.7-2h2.3q.2.7.9 1.2t1.8.4h1q1.5 0 2.1-.5t.7-1.5q0-1-.6-1.5t-1.8-.7l-2-.3q-2-.4-3-1.3-1.1-1-1.1-2.8 0-1.9 1.2-3 1.2-1 3.7-1h1q2 0 3.3 1t1.5 2.6H670q-.1-.7-.7-1.1t-1.7-.4h-1q-1.3 0-2 .5t-.6 1.5q0 .8.6 1.3t1.6.5l2 .4q2.2.3 3.3 1.3t1 2.9-1.2 3q-1.3 1.2-3.8 1.2Zm16.5 0q-1.6 0-3-.6-1.2-.7-1.9-2-.6-1.2-.6-2.8v-3.9q0-1.7.6-2.9t2-1.9 3-.7 2.9.7 2 2q.6 1.1.6 2.8v2.5h-8.9v1.4q0 1.7.9 2.6t2.4.9q1.4 0 2.2-.5t1-1.4h2.4q-.3 1.8-1.8 2.8t-3.8 1m3.3-8.3v-1q0-1.7-.8-2.6t-2.5-1q-1.5 0-2.4 1t-.9 2.6v.8h6.8Zm8 8.1v-14.3h2.2v2.7h.6l-.8 1.7q0-2.3 1-3.5t3-1.2q2.3 0 3.6 1.5 1.3 1.4 1.3 3.8v.9H703v-.7q0-1.7-.8-2.6t-2.3-.9-2.4 1q-.8.8-.8 2.5v9.1Zm19.4 0-4.8-14.3h2.4l3.2 9.6.5 1.7.3 1.2.4-1.2.5-1.7 3-9.6h2.4L717 144Zm12.1 0v-2.1h5v-10h-4.3v-2.2h6.7v12.2h4.8v2.1Zm6-16.9q-.9 0-1.4-.4t-.5-1.2.5-1.2 1.4-.5 1.3.5.5 1.2-.5 1.2-1.3.4m15.8 17.2q-1.7 0-3-.7t-2-1.9-.7-2.9v-3.9q0-1.7.7-3 .7-1.2 2-1.8t3-.7q2.5 0 4 1.4t1.6 3.6h-2.4q0-1.4-.9-2.1t-2.3-.8q-1.5 0-2.4.9-1 .9-1 2.5v3.9q0 1.6 1 2.5t2.4.9 2.3-.8q.9-.7 1-2h2.3q0 2.2-1.6 3.5-1.5 1.4-4 1.4m16 0q-1.6 0-3-.7-1.2-.7-1.9-2-.7-1.2-.7-2.8v-3.9q0-1.7.7-2.9t2-1.9 3-.7 2.9.7 2 2q.6 1.1.6 2.8v2.5h-8.9v1.4q0 1.7.9 2.6t2.4.9q1.4 0 2.2-.5t1-1.4h2.4q-.3 1.8-1.8 2.8t-3.8 1m3.3-8.4v-1q0-1.7-.8-2.6t-2.5-1-2.4 1-.9 2.6v.8h6.8Zm12.4 8.3q-1.4 0-2.5-.4t-1.7-1.3q-.7-.9-.8-2h2.3q.2.7.9 1.2t1.8.4h1.1q1.4 0 2-.5t.7-1.5-.6-1.5-1.8-.7l-1.9-.3q-2.1-.4-3.1-1.3t-1-2.8 1.2-3 3.6-1h1q2 0 3.3 1t1.5 2.6H783q-.2-.7-.8-1.1t-1.7-.4h-1q-1.3 0-2 .5-.5.5-.5 1.5 0 .8.5 1.3t1.6.5l2 .4q2.3.3 3.3 1.3t1 2.9-1.2 3-3.8 1.2Z"/><path fill="none" stroke="#dbdbd1" d="M40 160h810"/><path fill="#616872" d="M42.2 190v-19h5.3q1.8 0 3.2.7 1.4.8 2.2 2 .7 1.4.7 3.1v7.4q0 1.7-.7 3-.8 1.4-2.2 2-1.4.8-3.2.8Zm2.8-2.6h2.5q1.5 0 2.4-.8 1-.9 1-2.4v-7.4q0-1.5-1-2.4t-2.4-.8H45Zm16.4 2.6 4.8-19H70l4.9 19H72l-1.1-4.8h-5.4l-1.1 4.8Zm4.5-7.1h4.3l-1.3-5.5-.5-2.5-.3-1.5-.3 1.5-.6 2.5Zm21 7.1v-16.4h-5V171h13v2.6h-5.1V190Zm15 0 4.9-19h3.7l4.8 19h-2.8l-1.2-4.8H106l-1.2 4.8Zm4.6-7.1h4.3l-1.3-5.5-.6-2.5-.3-1.5-.2 1.5-.6 2.5Z"/><path fill="#14171b" d="M243 190v-19h2.3v17h8.6v2.1Zm21 .2q-1.8 0-3-.6-1.3-.7-2-2-.7-1.2-.7-2.8v-3.9q0-1.7.7-2.9t2-1.9 3-.6 2.9.6 2 2q.6 1.1.6 2.8v3.8q0 1.7-.7 3-.7 1.2-2 1.9-1.2.6-2.9.6m0-2q1.4 0 2.3-1 .9-.8.9-2.4v-3.9q0-1.6-.9-2.5t-2.4-.8-2.4.8-.8 2.5v3.8q0 1.7.8 2.6 1 .8 2.4.8m16.1 2q-1.7 0-3-.6-1.2-.6-2-1.9-.7-1.2-.7-2.9v-3.9q0-1.7.8-3 .7-1.2 2-1.8 1.2-.7 3-.7 2.4 0 4 1.4 1.4 1.3 1.5 3.6h-2.3q-.1-1.4-1-2.1t-2.3-.8-2.4.9-1 2.5v3.9q0 1.6 1 2.5t2.4.9 2.3-.8q.9-.7 1-2h2.3q0 2.2-1.6 3.5-1.5 1.4-4 1.4m14.8 0q-2.2 0-3.5-1.1T290 186t1.3-3.2 3.5-1.1h4.4v-1.4q0-1.4-.8-2-.8-.8-2.3-.8-1.2 0-2 .5-1 .6-1 1.5h-2.4q.2-1.9 1.7-3 1.5-1 3.8-1 2.5 0 3.9 1.2 1.4 1.3 1.4 3.5v9.8h-2.3v-2.7h-.4l.4-.4q0 1.5-1.2 2.4-1.2 1-3.2 1m.6-1.8q1.6 0 2.7-.8 1-.8 1-2.2v-2H295q-1.2 0-1.8.7t-.7 1.7.8 2q.8.6 2.3.6m18.7 1.6q-1.2 0-2.1-.5t-1.5-1.4-.5-2.1v-12.8h-4.8V171h7.1v15q0 .8.5 1.4t1.3.5h4.6v2.1Zm10-7.5v-2.1h8.4v2Zm18.2 7.5v-10.7h-4.1V177h4.1v-2.4q0-1.7 1.1-2.7 1-1 3-1h4.1v2.2h-4.2q-.8 0-1.2.3-.4.4-.4 1.2v2.4h5.8v2.2h-5.8V190Zm12.7 0V188h5v-10h-4.4v-2.2h6.8V188h4.8v2.1Zm6-16.9q-1 0-1.4-.4-.5-.5-.5-1.2 0-.8.5-1.2.5-.5 1.3-.5t1.4.4.5 1.3q0 .7-.5 1.2t-1.4.4m10.8 16.9v-14.3h2.2v2.7h.6l-.8 1.7q0-2.3 1-3.5t3-1.2q2.3 0 3.6 1.5 1.3 1.4 1.3 3.8v.9h-2.3v-.7q0-1.7-.8-2.6t-2.3-.9-2.4 1q-.8.8-.8 2.5v9.1Zm20.5.2q-1.4 0-2.5-.4-1-.5-1.7-1.3t-.8-2h2.4q.1.7.8 1.2t1.8.4h1.1q1.4 0 2-.5.8-.6.8-1.5t-.7-1.5-1.8-.7l-1.9-.3q-2-.4-3.1-1.3-1-1-1-2.8 0-1.9 1.2-3 1.2-1 3.6-1h1q2 0 3.3 1t1.5 2.6h-2.3q-.2-.7-.8-1.1t-1.7-.4h-1q-1.3 0-1.9.5t-.6 1.5q0 .8.5 1.3t1.7.5l1.9.4q2.3.3 3.4 1.3 1 1 1 2.9 0 2-1.3 3-1.2 1.2-3.8 1.2Zm18.2-.2q-1.9 0-3-1-1-1-1-2.8v-8.4h-4v-2.1h4v-4h2.4v4h5.7v2.1H409v8.4q0 1.7 1.6 1.7h3.9v2.1Zm25.2 4.7v-19h2.4v2.7h.4l-.4.6q0-1.7 1-2.6 1.1-1 2.9-1 2.2 0 3.4 1.5 1.3 1.4 1.3 3.8v4.2q0 1.7-.6 2.9t-1.6 1.8-2.5.7q-1.7 0-2.8-1t-1.1-2.6l.4.6h-.5v7.4Zm5.5-6.5q1.5 0 2.3-.8.9-1 .9-2.6V181q0-1.7-.9-2.6-.8-.8-2.3-.8t-2.3.9-.8 2.5v3.9q0 1.6.8 2.5.9 1 2.3 1m16 2q-1.6 0-2.9-.6t-2-2-.6-2.8v-3.9q0-1.7.7-2.9t2-1.9 2.9-.7 3 .7 1.9 2q.6 1.1.6 2.8v2.5h-8.8v1.4q0 1.7.8 2.6t2.5.9q1.3 0 2.1-.5t1-1.4h2.4q-.2 1.8-1.8 2.8-1.5 1-3.7 1m3.4-8.3v-1q0-1.7-.9-2.6t-2.4-1-2.5 1-.8 2.6v.8h6.7Zm7.9 8.1v-14.3h2.3v2.7h.5l-.7 1.7q0-2.3 1-3.5t3-1.2q2.2 0 3.5 1.5 1.4 1.4 1.4 3.8v.9h-2.4v-.7q0-1.7-.8-2.6t-2.3-.9-2.4 1q-.8.8-.8 2.5v9.1Zm20.6.2q-1.5 0-2.6-.4-1-.5-1.7-1.3t-.8-2h2.4q.1.7.8 1.2t1.9.4h1q1.4 0 2.1-.5t.7-1.5-.6-1.5-1.8-.7l-2-.3q-2-.4-3-1.3-1.1-1-1.1-2.8 0-1.9 1.2-3 1.2-1 3.7-1h1q2 0 3.3 1t1.5 2.6h-2.4q-.1-.7-.8-1.1-.6-.4-1.6-.4h-1q-1.4 0-2 .5t-.6 1.5q0 .8.5 1.3t1.7.5l1.9.4q2.3.3 3.4 1.3 1 1 1 2.9 0 2-1.2 3-1.3 1.2-3.9 1.2Zm11-.2v-2.1h5v-10h-4.4v-2.2h6.7v12.2h4.9v2.1Zm6-16.9q-1 0-1.4-.4-.5-.5-.5-1.2 0-.8.5-1.2.4-.5 1.3-.5t1.4.4.5 1.3q0 .7-.5 1.2t-1.4.4m15.2 17.1q-1.5 0-2.5-.4-1.1-.5-1.7-1.3-.7-.9-.8-2h2.3q.2.7.9 1.2t1.8.4h1q1.5 0 2.1-.5t.7-1.5q0-1-.6-1.5t-1.8-.7l-2-.3q-2-.4-3-1.3t-1-2.8 1.1-3q1.3-1 3.7-1h1q2 0 3.3 1t1.5 2.6h-2.3q-.2-.7-.8-1.1t-1.7-.4h-1q-1.3 0-2 .5-.5.5-.5 1.5 0 .8.5 1.3t1.6.5l2 .4q2.3.3 3.3 1.3t1 2.9-1.2 3-3.8 1.2Zm18.1-.2q-1.8 0-2.9-1t-1-2.8V178h-4v-2.1h4v-4h2.4v4h5.7v2.1H538v8.4q0 1.7 1.5 1.7h4v2.1Zm14.6.3q-1.7 0-3-.7-1.2-.7-2-2-.6-1.2-.6-2.8v-3.9q0-1.7.7-2.9t2-1.9 2.9-.7 3 .7 1.9 2q.7 1.1.7 2.8v2.5h-9v1.4q0 1.7 1 2.6.8.9 2.4.9 1.3 0 2.2-.5.8-.5 1-1.4h2.3q-.2 1.8-1.7 2.8-1.6 1-3.8 1m3.3-8.4v-1q0-1.7-.9-2.6t-2.4-1-2.5 1-.8 2.6v.8h6.8Zm7.4 8.1v-14.3h2.3v2.7h.5l-.5.6q0-1.7 1-2.6t2.9-1q2.1 0 3.4 1.4t1.3 3.6v9.6h-2.4v-9.4q0-1.5-.8-2.3t-2.2-.8-2.3.8q-.9 1-.9 2.6v9.1Zm21.6.3q-1.7 0-3-.7t-2-1.9-.7-2.9V181q0-1.7.7-3 .7-1.2 2-1.8t3-.7q2.5 0 4 1.4t1.6 3.6h-2.4q0-1.4-.9-2.1t-2.3-.8q-1.5 0-2.4.9-1 .9-1 2.5v3.9q0 1.6 1 2.5t2.4.9 2.3-.8q.9-.7 1-2h2.3q0 2.2-1.6 3.5-1.5 1.4-4 1.4m16 0q-1.6 0-3-.7-1.2-.7-1.9-2-.6-1.2-.6-2.8V181q0-1.7.6-2.9t2-1.9 3-.7 2.9.7 2 2q.6 1.1.6 2.8v2.5h-8.9v1.4q0 1.7.9 2.6t2.4.9q1.4 0 2.2-.5t1-1.4h2.4q-.3 1.8-1.8 2.8t-3.8 1m3.3-8.4v-1q0-1.7-.8-2.6t-2.5-1q-1.5 0-2.4 1t-.9 2.6v.8h6.8Zm27.7 8.4q-2.2 0-3.5-1.2t-1.3-3.1 1.3-3.2 3.5-1.1h4.4v-1.4q0-1.4-.8-2-.8-.8-2.2-.8-1.3 0-2.2.5-.8.6-1 1.5h-2.3q.2-1.9 1.7-3 1.5-1 3.8-1 2.5 0 4 1.2 1.3 1.3 1.3 3.5v9.8H638v-2.7h-.4l.4-.4q0 1.5-1.3 2.4-1.2 1-3.2 1m.6-1.9q1.7 0 2.7-.8t1.1-2.2v-2h-4.4q-1.1 0-1.8.7t-.7 1.7.8 2q.8.6 2.3.6m11.4 1.6v-14.3h2.3v2.7h.5l-.5.6q0-1.7 1-2.6t2.8-1q2.2 0 3.5 1.4t1.3 3.6v9.6H654v-9.4q0-1.5-.8-2.3t-2.2-.8-2.3.8q-.9 1-.9 2.6v9.1Zm20.7.3q-2.1 0-3.5-1.5-1.3-1.4-1.3-3.8v-4.2q0-2.5 1.3-4 1.3-1.4 3.5-1.4 1.8 0 2.8 1t1 2.6l-.4-.6h.5V171h2.3v19H670v-2.7h-.5l.5-.6q0 1.7-1 2.6-1.1 1-3 1m.8-2q1.4 0 2.3-1t.8-2.5v-3.9q0-1.6-.8-2.5-.9-1-2.3-1-1.5 0-2.4 1-.8.8-.8 2.5v3.9q0 1.7.8 2.5.9 1 2.4 1m32.3 2q-1.8 0-3-.7t-2-2q-.6-1.2-.6-2.8v-3.9q0-1.7.7-2.9t1.9-1.9 3-.6 3 .6 1.9 2q.6 1.1.6 2.8v3.8q0 1.7-.6 3-.7 1.2-2 1.9-1.2.6-3 .6m0-2.2q1.5 0 2.3-.8 1-.9 1-2.6V181q0-1.7-1-2.6-.8-.8-2.3-.8-1.6 0-2.4.8-.9.9-.9 2.5v3.8q0 1.7.9 2.6.9.8 2.4.8m14 1.9v-10.7h-4V177h4.2v-2.4q0-1.7 1-2.7 1.1-1 3-1h4.2v2.2h-4.2q-.8 0-1.2.3-.5.4-.5 1.2v2.4h5.9v2.2h-5.9V190Zm16.1 0v-10.7H725V177h4.1v-2.4q0-1.7 1-2.7 1.2-1 3-1h4.2v2.2h-4.2q-.8 0-1.2.3-.4.4-.4 1.2v2.4h5.8v2.2h-5.8V190Zm20.2 0q-1.3 0-2.2-.5t-1.5-1.4-.5-2.1v-12.8h-4.8V171h7.1v15q0 .8.5 1.4t1.4.5h4.5v2.1Zm8.5 0v-2.1h5.1v-10h-4.4v-2.2h6.8v12.2h4.8v2.1Zm6-16.9q-.8 0-1.3-.4t-.5-1.2.5-1.2 1.3-.5 1.4.4q.5.5.5 1.3 0 .7-.5 1.2t-1.4.4m10.4 16.9v-14.3h2.3v2.7h.5l-.5.6q0-1.7 1-2.6t2.8-1q2.2 0 3.5 1.4t1.2 3.6v9.6h-2v-9.4q0-1.5-.8-2.3t-2.3-.8-2.3.8q-.8 1-.8 2.6v9.1Zm21.5.3q-1.7 0-3-.7-1.2-.7-2-2-.6-1.2-.6-2.8v-3.9q0-1.7.7-2.9t2-1.9 2.9-.7 3 .7 1.9 2q.7 1.1.7 2.8v2.5h-9v1.4q0 1.7 1 2.6.8.9 2.4.9 1.3 0 2.2-.5.8-.5 1-1.4h2.3q-.2 1.8-1.7 2.8-1.6 1-3.8 1m3.3-8.4v-1q0-1.7-.9-2.6t-2.4-1-2.5 1-.8 2.6v.8h6.8Z"/><path fill="none" stroke="#dbdbd1" d="M40 206h810"/><path fill="#616872" d="M41.7 236v-19h3.5l1.9 6.1.5 1.7.3 1.1.3-1.1.4-1.7 1.8-6H54V236h-2.7v-6.4l.1-2.7.2-3 .3-3q0-1.3.2-2.4l-2.8 9.3h-2.7l-2.9-9.3.3 2.4.2 2.8.2 3v9.3Zm26.4.3q-1.8 0-3-.7-1.4-.7-2-2-.7-1.2-.7-2.9v-8.4q0-1.7.6-3 .7-1.2 2-1.9t3-.6 3.1.6 2 2 .7 2.9v8.4q0 1.7-.7 3-.7 1.2-2 1.9-1.2.7-3 .7m0-2.5q1.4 0 2.2-.8.7-.8.7-2.3v-8.4q0-1.5-.7-2.3-.8-.7-2.2-.7t-2.2.7-.7 2.3v8.4q0 1.5.7 2.3.8.8 2.2.8M87 236v-16.4h-5.1V217h13v2.6h-5.1V236Zm16.4 0v-2.5h3.8v-14h-3.8V217h10.5v2.5H110v14h3.8v2.5Zm25.5.3q-1.7 0-3-.7t-2-2-.7-2.9v-8.4q0-1.7.7-3 .7-1.2 2-1.9t3-.6 3 .6q1.4.7 2 2 .7 1.2.7 2.9v8.4q0 1.7-.7 3-.6 1.2-2 1.9-1.2.7-3 .7m0-2.5q1.4 0 2.2-.8.7-.8.7-2.3v-8.4q0-1.5-.7-2.3t-2.2-.7-2.1.7-.8 2.3v8.4q0 1.5.8 2.3.7.8 2.1.8m14.6 2.2v-19h3.5l5.6 15.8-.2-1.8v-2.2l-.1-2V217h2.6v19h-3.5l-5.6-15.8.2 1.7v2.1l.1 2v10Z"/><path fill="#14171b" d="m241.3 236 5-19h3l5 19h-2.4l-1.2-5h-5.8l-1.2 5Zm4.1-7h4.8l-1.5-5.9-.6-2.7-.3-1.5-.3 1.4-.6 2.8Zm13.1 7v-14.3h2.4v2.7h.5l-.5.6q0-1.7 1-2.6t2.8-1q2.1 0 3.4 1.4t1.3 3.6v9.6H267v-9.4q0-1.5-.8-2.3t-2.2-.8-2.3.8q-.8 1-.8 2.6v9.1Zm16 0v-2.1h5v-10h-4.4v-2.2h6.8v12.2h4.8v2.1Zm6-16.9q-1 0-1.4-.4-.5-.5-.5-1.2 0-.8.5-1.2.5-.5 1.3-.5t1.4.4.5 1.3q0 .7-.5 1.2t-1.4.4M290 236v-14.3h2v1.7h.5l-.4.6q0-1.2.7-1.9t1.7-.7q1.2 0 1.8 1 .7.8.7 2.4l-.7-1.4h1l-.4.6q0-1.2.7-1.9t1.7-.7q1.4 0 2.1 1t.7 2.7V236H300v-10.9q0-.9-.4-1.4t-1.1-.5-1.1.5-.4 1.4V236h-1.9v-10.9q0-.9-.4-1.4t-1.1-.5-1.1.5-.4 1.4V236Zm21 .3q-2.3 0-3.6-1.2t-1.3-3.1 1.3-3.2 3.5-1.1h4.4v-1.4q0-1.4-.8-2-.8-.8-2.2-.8-1.3 0-2.2.5-.8.6-1 1.5H307q.2-1.9 1.7-3 1.5-1 3.8-1 2.5 0 4 1.2 1.3 1.3 1.3 3.5v9.8h-2.2v-2.7h-.4l.3-.4q0 1.5-1.2 2.4-1.2 1-3.2 1m.5-1.9q1.7 0 2.7-.8t1.1-2.2v-2H311q-1.1 0-1.8.7t-.7 1.7.8 2q.8.6 2.3.6M330 236q-1.9 0-3-1-1-1-1-2.8v-8.4h-4v-2.1h4v-4h2.4v4h5.7v2.1h-5.7v8.4q0 1.7 1.6 1.7h3.9v2.1Zm9 0v-2.1h5v-10h-4.4v-2.2h6.7v12.2h4.8v2.1Zm6-16.9q-1 0-1.4-.4-.5-.5-.5-1.2 0-.8.5-1.2.4-.5 1.3-.5t1.4.4.5 1.3q0 .7-.5 1.2t-1.4.4m15.6 17.1q-1.7 0-3-.6-1.2-.7-1.9-2-.6-1.2-.6-2.8v-3.9q0-1.7.6-2.9t2-1.9 3-.6 2.9.6 2 2q.6 1.1.6 2.8v3.8q0 1.7-.7 3-.6 1.2-1.9 1.9t-3 .6m0-2q1.6 0 2.4-1 .9-.8.9-2.4v-3.9q0-1.6-.9-2.5t-2.4-.8-2.3.8q-1 .9-1 2.5v3.8q0 1.7 1 2.6.8.8 2.3.8m10.8 1.8v-14.3h2.3v2.7h.5l-.5.6q0-1.7 1-2.6t2.8-1q2.2 0 3.4 1.4 1.3 1.3 1.3 3.6v9.6H380v-9.4q0-1.5-.8-2.3t-2.3-.8-2.3.8q-.8 1-.8 2.6v9.1Zm36.4.3q-2.3 0-3.6-1.2t-1.3-3.1 1.3-3.2 3.5-1.1h4.4v-1.4q0-1.4-.8-2-.8-.8-2.2-.8-1.3 0-2.2.5-.8.6-1 1.5h-2.3q.3-1.9 1.8-3 1.5-1 3.7-1 2.5 0 4 1.2 1.4 1.3 1.4 3.5v9.8h-2.3v-2.7h-.4l.4-.4q0 1.5-1.2 2.4-1.2 1-3.2 1m.5-1.9q1.7 0 2.8-.8t1-2.2v-2h-4.4q-1.1 0-1.8.7t-.7 1.7.9 2q.8.6 2.2.6m16.4 1.8q-1.5 0-2.6-.4-1-.5-1.7-1.3t-.7-2h2.3q.2.7.9 1.2t1.8.4h1q1.4 0 2.1-.5t.7-1.5-.6-1.5-1.8-.7l-2-.3q-2-.4-3-1.3-1.1-1-1.1-2.8 0-1.9 1.2-3 1.2-1 3.7-1h1q2 0 3.3 1t1.5 2.6h-2.4q-.1-.7-.7-1.1t-1.7-.4h-1q-1.3 0-2 .5t-.6 1.5q0 .8.6 1.3t1.6.5l2 .4q2.2.3 3.3 1.3t1 2.9q0 2-1.2 3-1.3 1.2-3.8 1.2Zm31.4 0q-2.2 0-3.6-1.1-1.2-1.2-1.2-3.1t1.3-3.2q1.3-1.1 3.5-1.1h4.4v-1.4q0-1.4-.8-2-.8-.8-2.3-.8-1.2 0-2 .5-1 .6-1 1.5H452q.2-1.9 1.7-3 1.5-1 3.8-1 2.5 0 3.9 1.2 1.4 1.3 1.4 3.5v9.8h-2.3v-2.7h-.4l.4-.4q0 1.5-1.2 2.4-1.2 1-3.2 1m.6-1.8q1.7 0 2.7-.8t1-2.2v-2h-4.3q-1.2 0-1.8.7t-.7 1.7.8 2q.8.6 2.3.6m33 1.9q-1.7 0-3-.7t-2-1.9-.7-2.9v-3.9q0-1.7.7-3 .7-1.2 2-1.8t3-.7q2.5 0 4 1.4t1.6 3.6h-2.4q0-1.4-.9-2.1t-2.3-.8q-1.5 0-2.4.9-1 .9-1 2.5v3.9q0 1.6 1 2.5t2.4.9 2.3-.8q.9-.7 1-2h2.3q-.1 2.2-1.6 3.5-1.5 1.4-4 1.4m16 0q-1.7 0-3-.7-1.2-.7-1.9-2-.7-1.2-.7-2.8v-3.9q0-1.7.7-2.9t2-1.9 3-.6 2.9.6 2 2q.6 1.1.6 2.8v3.8q0 1.7-.7 3-.7 1.2-2 1.9-1.2.6-2.9.6m0-2.2q1.6 0 2.4-.8.9-.9.9-2.6V227q0-1.7-.9-2.6-.9-.8-2.4-.8t-2.4.8-.8 2.5v3.8q0 1.7.8 2.6 1 .8 2.4.8m10 1.9v-14.3h2.1v1.7h.5l-.4.6q0-1.2.6-1.9t1.8-.7 1.8 1q.7.8.7 2.4l-.7-1.4h1l-.4.6q0-1.2.6-1.9t1.8-.7q1.3 0 2 1 .8 1 .8 2.7V236h-2.1v-10.9q0-.9-.4-1.4t-1.1-.5-1.1.5-.4 1.4V236h-1.9v-10.9q0-.9-.4-1.4t-1.1-.5-1.1.5-.4 1.4V236Zm16.8 4.7v-19h2.4v2.7h.5l-.5.6q0-1.7 1-2.6 1.1-1 3-1 2 0 3.4 1.5 1.3 1.4 1.3 3.8v4.2q0 1.7-.6 2.9t-1.7 1.8-2.5.7q-1.7 0-2.8-1t-1.1-2.6l.5.6h-.6v7.4Zm5.5-6.5q1.5 0 2.4-.8.8-1 .8-2.6v-3.9q0-1.7-.8-2.6-.9-.8-2.4-.8-1.4 0-2.2.9-1 .9-1 2.5v3.9q0 1.6 1 2.5.8 1 2.2 1m16 2q-1.6 0-2.9-.6t-2-2-.6-2.8V227q0-1.7.7-2.9t2-1.9 2.9-.6 3 .6 1.9 2q.7 1.1.7 2.8v3.8q0 1.7-.7 3-.7 1.2-2 1.9-1.2.6-3 .6m0-2q1.6 0 2.5-1 .8-.8.8-2.4V227q0-1.6-.8-2.5t-2.4-.8-2.4.8-.9 2.5v3.8q0 1.7.9 2.6.9.8 2.4.8m15.8 2q-1.5 0-2.6-.4-1-.5-1.7-1.3t-.8-2h2.4q.1.7.8 1.2t1.9.4h1q1.4 0 2.1-.5t.7-1.5-.6-1.5-1.8-.7l-2-.3q-2-.4-3-1.3-1.1-1-1.1-2.8 0-1.9 1.2-3 1.2-1 3.7-1h1q2 0 3.3 1t1.5 2.6h-2.4q-.1-.7-.8-1.1-.6-.4-1.6-.4h-1q-1.4 0-2 .5t-.6 1.5q0 .8.5 1.3t1.7.5l1.9.4q2.3.3 3.4 1.3 1 1 1 2.9 0 2-1.2 3-1.3 1.2-3.9 1.2Zm15.3 0q-2.3 0-3.6-1.1t-1.3-3.1 1.3-3.2 3.5-1.1h4.4v-1.4q0-1.4-.7-2-.9-.8-2.3-.8t-2.1.5q-.9.6-1 1.5H581q.3-1.9 1.8-3 1.5-1 3.8-1 2.4 0 3.9 1.2 1.4 1.3 1.4 3.5v9.8h-2.3v-2.7h-.4l.4-.4q0 1.5-1.2 2.4-1.2 1-3.2 1m.5-1.8q1.7 0 2.8-.8t1-2.2v-2h-4.3q-1.2 0-1.9.7t-.7 1.7.9 2q.8.6 2.2.6m17.7 1.9q-1.8 0-2.9-1t-1-2.6l.4.6h-.4v2.7H597v-19h2.4v7.4h.4l-.4.6q0-1.6 1-2.6 1.1-1 2.9-1 2.1 0 3.4 1.5 1.3 1.4 1.3 3.9v4.2q0 2.4-1.3 3.8-1.3 1.5-3.4 1.5m-.8-2q1.5 0 2.3-1 .9-.8.9-2.5V227q0-1.7-.9-2.6-.8-.8-2.3-.8t-2.3.9-.8 2.5v3.9q0 1.6.8 2.5.9 1 2.3 1m18 1.7q-1.2 0-2.2-.5t-1.4-1.4-.5-2.1v-12.8h-4.9V217h7.2v15q0 .8.5 1.4t1.3.5h4.6v2.1Zm14.2.3q-1.7 0-3-.7-1.2-.7-2-2-.6-1.2-.6-2.8V227q0-1.7.7-2.9t2-1.9 2.9-.7 3 .7 1.9 2q.7 1.1.7 2.8v2.5h-9v1.4q0 1.7 1 2.6.8.9 2.4.9 1.3 0 2.2-.5.8-.5 1-1.4h2.3q-.2 1.8-1.7 2.8-1.6 1-3.8 1m3.3-8.4v-1q0-1.7-.9-2.6t-2.4-1-2.5 1-.8 2.6v.8h6.8Zm28.5 8.3q-1.5 0-2.6-.4-1-.5-1.7-1.3t-.7-2h2.3q.2.7.9 1.2t1.8.4h1q1.5 0 2.1-.5t.7-1.5q0-1-.6-1.5t-1.8-.7l-2-.3q-2-.4-3-1.3-1.1-1-1.1-2.8 0-1.9 1.2-3 1.2-1 3.7-1h1q2 0 3.3 1t1.5 2.6H670q-.1-.7-.7-1.1t-1.7-.4h-1q-1.3 0-2 .5t-.6 1.5q0 .8.6 1.3t1.6.5l2 .4q2.2.3 3.3 1.3t1 2.9-1.2 3q-1.3 1.2-3.8 1.2Zm13.4 4.5 2-5.6-5.2-13.4h2.6l3.3 8.8.3 1 .3 1.1.3-1 .3-1 3-8.9h2.6l-7 19Zm18.8-4.5q-1.4 0-2.5-.4t-1.7-1.3q-.7-.9-.8-2h2.3q.2.7.9 1.2t1.8.4h1.1q1.4 0 2-.5t.7-1.5-.6-1.5-1.8-.7l-1.9-.3q-2.1-.4-3.1-1.3t-1-2.8 1.2-3 3.6-1h1q2 0 3.3 1t1.5 2.6h-2.3q-.2-.7-.8-1.1t-1.7-.4h-1q-1.3 0-2 .5-.5.5-.5 1.5 0 .8.5 1.3t1.6.5l2 .4q2.3.3 3.3 1.3t1 2.9-1.2 3-3.8 1.2Zm18.1-.2q-1.8 0-2.8-1t-1-2.8v-8.4h-4v-2.1h4v-4h2.3v4h5.7v2.1h-5.7v8.4q0 1.7 1.5 1.7h4v2.1Zm14.6.3q-1.7 0-3-.7-1.2-.7-1.9-2-.7-1.2-.7-2.8v-3.9q0-1.7.7-2.9t2-1.9 2.9-.7 3 .7 1.9 2q.7 1.1.7 2.8v2.5h-9v1.4q0 1.7.9 2.6t2.4.9q1.4 0 2.2-.5t1-1.4h2.3q-.2 1.8-1.7 2.8t-3.8 1m3.3-8.4v-1q0-1.7-.8-2.6t-2.5-1-2.4 1-.9 2.6v.8h6.8Zm6.7 8.1v-14.3h2v1.7h.6l-.4.6q0-1.2.6-1.9t1.8-.7 1.8 1q.7.8.7 2.4l-.7-1.4h1l-.4.6q0-1.2.6-1.9t1.8-.7q1.3 0 2 1 .8 1 .8 2.7v11h-2.1v-10.9q0-.9-.4-1.4t-1.1-.5-1.1.5-.4 1.4V236h-2v-10.9q0-.9-.3-1.4-.4-.5-1.2-.5t-1 .5-.4 1.4V236Z"/></svg>