<svg xmlns="http://www.w3.org/2000/svg" aria-labelledby="v5-project-ledger-title v5-project-ledger-desc" role="img" viewBox="0 0 880 180"><title id="v5-project-ledger-title">04 — JointLedger</title><desc id="v5-project-ledger-desc">UPSTREAM BACKEND EXTENSION. Vue upstream to Docker to PostgreSQL to Book API to Role checks. Docker runtime and shared-book backend contribution.</desc><path fill="#0a0c10" d="M0 0h880v180H0z"/><style>text{font-kerning:normal;text-rendering:geometricPrecision}circle,path{shape-rendering:geometricPrecision}</style><path fill="#12161c" stroke="#3a444f" d="M20 0h840v180H20z"/><text x="38" y="25" fill="#d3b36a" font-family="'SFMono-Regular',Consolas,'Liberation Mono',monospace" font-size="10" font-weight="650" letter-spacing="1.35">04 · CONTRIBUTION</text><text x="38" y="60" fill="#e9edf2" font-family="-apple-system,BlinkMacSystemFont,'Segoe UI',Arial,sans-serif" font-size="23" font-weight="680" letter-spacing="-.7">JointLedger</text><text x="842" y="59" fill="#858f9d" font-family="'SFMono-Regular',Consolas,'Liberation Mono',monospace" font-size="10" font-weight="650" letter-spacing="1.35" text-anchor="end">UPSTREAM BACKEND EXTENSION</text><path fill="#212932" stroke="#88a7cd" d="M38 79h154.4v42H38z"/><text x="115.2" y="106" fill="#e9edf2" font-family="'SFMono-Regular',Consolas,'Liberation Mono',monospace" font-size="9.4" font-weight="650" text-anchor="middle">Vue upstream</text><path fill="#3a444f" d="m193.4 100 3-3v6z"/><path fill="#171c23" stroke="#3a444f" d="M200.4 79h154.4v42H200.4z"/><text x="277.6" y="106" fill="#e9edf2" font-family="'SFMono-Regular',Consolas,'Liberation Mono',monospace" font-size="9.4" font-weight="650" text-anchor="middle">Docker</text><path fill="#3a444f" d="m355.8 100 3-3v6z"/><path fill="#171c23" stroke="#3a444f" d="M362.8 79h154.4v42H362.8z"/><text x="440" y="106" fill="#e9edf2" font-family="'SFMono-Regular',Consolas,'Liberation Mono',monospace" font-size="9.4" font-weight="650" text-anchor="middle">PostgreSQL</text><path fill="#3a444f" d="m518.2 100 3-3v6z"/><path fill="#171c23" stroke="#3a444f" d="M525.2 79h154.4v42H525.2z"/><text x="602.4" y="106" fill="#e9edf2" font-family="'SFMono-Regular',Consolas,'Liberation Mono',monospace" font-size="9.4" font-weight="650" text-anchor="middle">Book API</text><path fill="#3a444f" d="m680.6 100 3-3v6z"/><path fill="#171c23" stroke="#3a444f" d="M687.6 79H842v42H687.6z"/><text x="764.8" y="106" fill="#e9edf2" font-family="'SFMono-Regular',Consolas,'Liberation Mono',monospace" font-size="9.4" font-weight="650" text-anchor="middle">Role checks</text><circle cx="42" cy="138" r="3.5" fill="#d3b36a"/><text x="55" y="142" fill="#e9edf2" font-family="-apple-system,BlinkMacSystemFont,'Segoe UI',Arial,sans-serif" font-size="11.4" font-weight="610">Docker runtime and shared-book backend contribution.</text></svg>