<svg xmlns="http://www.w3.org/2000/svg" aria-labelledby="v5-project-layers-title v5-project-layers-desc" role="img" viewBox="0 0 880 180"><title id="v5-project-layers-title">03 — Built in Layers</title><desc id="v5-project-layers-desc">TYPED CONTENT PIPELINE. MDX to Zod to Build Gate to RSC to SSG to QA. Typed content makes accessibility delivery evidence.</desc><path fill="#e5e7e2" d="M0 0h880v180H0z"/><style>text{font-kerning:normal;text-rendering:geometricPrecision}circle,path{shape-rendering:geometricPrecision}</style><path fill="#fcfcfb" stroke="#a8ada8" d="M20 0h840v180H20z"/><text x="38" y="25" fill="#2b5581" font-family="'SFMono-Regular',Consolas,'Liberation Mono',monospace" font-size="10" font-weight="650" letter-spacing="1.35">03 · PROOF</text><text x="38" y="60" fill="#13171b" font-family="-apple-system,BlinkMacSystemFont,'Segoe UI',Arial,sans-serif" font-size="23" font-weight="680" letter-spacing="-.7">Built in Layers</text><text x="842" y="59" fill="#5e666e" font-family="'SFMono-Regular',Consolas,'Liberation Mono',monospace" font-size="10" font-weight="650" letter-spacing="1.35" text-anchor="end">TYPED CONTENT PIPELINE</text><path fill="#dfe4e4" stroke="#2b5581" d="M38 79h127.33v42H38z"/><text x="101.67" y="106" fill="#13171b" font-family="'SFMono-Regular',Consolas,'Liberation Mono',monospace" font-size="9.4" font-weight="650" text-anchor="middle">MDX</text><path fill="#a8ada8" d="m166.33 100 3-3v6z"/><path fill="#f1f2ee" stroke="#a8ada8" d="M173.33 79h127.33v42H173.33z"/><text x="237" y="106" fill="#13171b" font-family="'SFMono-Regular',Consolas,'Liberation Mono',monospace" font-size="9.4" font-weight="650" text-anchor="middle">Zod</text><path fill="#a8ada8" d="m301.67 100 3-3v6z"/><path fill="#f1f2ee" stroke="#a8ada8" d="M308.67 79H436v42H308.67z"/><text x="372.33" y="106" fill="#13171b" font-family="'SFMono-Regular',Consolas,'Liberation Mono',monospace" font-size="9.4" font-weight="650" text-anchor="middle">Build Gate</text><path fill="#a8ada8" d="m437 100 3-3v6z"/><path fill="#f1f2ee" stroke="#a8ada8" d="M444 79h127.33v42H444z"/><text x="507.67" y="106" fill="#13171b" font-family="'SFMono-Regular',Consolas,'Liberation Mono',monospace" font-size="9.4" font-weight="650" text-anchor="middle">RSC</text><path fill="#a8ada8" d="m572.33 100 3-3v6z"/><path fill="#f1f2ee" stroke="#a8ada8" d="M579.33 79h127.33v42H579.33z"/><text x="643" y="106" fill="#13171b" font-family="'SFMono-Regular',Consolas,'Liberation Mono',monospace" font-size="9.4" font-weight="650" text-anchor="middle">SSG</text><path fill="#a8ada8" d="m707.67 100 3-3v6z"/><path fill="#f1f2ee" stroke="#a8ada8" d="M714.67 79H842v42H714.67z"/><text x="778.33" y="106" fill="#13171b" font-family="'SFMono-Regular',Consolas,'Liberation Mono',monospace" font-size="9.4" font-weight="650" text-anchor="middle">QA</text><circle cx="42" cy="138" r="3.5" fill="#2b5581"/><text x="55" y="142" fill="#13171b" font-family="-apple-system,BlinkMacSystemFont,'Segoe UI',Arial,sans-serif" font-size="11.4" font-weight="610">Typed content makes accessibility delivery evidence.</text></svg>