<svg xmlns="http://www.w3.org/2000/svg" aria-labelledby="signal-mobile-light-title signal-mobile-light-desc" role="img" viewBox="0 0 390 650"><title id="signal-mobile-light-title">Mobile measured public engineering signal</title><desc id="signal-mobile-light-desc">135 public contributions across 52 complete weeks ending 2026-08-22; 59 public non-fork repositories; primary public source language TypeScript at 49.4 percent.</desc><style>@keyframes signal-phase{0%,to{opacity:.68}12%,78%{opacity:1}90%{opacity:.38}}@keyframes signal-trace-inspection{0%,8%,92%,to{opacity:0;stroke-dashoffset:1}12%{opacity:.92;stroke-dashoffset:1}39%,53%{opacity:.9;stroke-dashoffset:0}82%{opacity:.2;stroke-dashoffset:0}}@keyframes signal-inspector{0%,8%,to{opacity:0;transform:translateX(0)}12%{opacity:.88;transform:translateX(0)}39%{opacity:.88;transform:translateX(342px)}45%,92%{opacity:0;transform:translateX(342px)}}@keyframes signal-event{0%,14%,31%,to{opacity:0}17%,26%{opacity:1}}@keyframes signal-event-ring{0%,14%,to{opacity:0;transform:scale(.65)}17%{opacity:.95;transform:scale(.65)}26%{opacity:.18;transform:scale(1.5)}31%{opacity:0;transform:scale(1.72)}}@keyframes signal-inference{0%,22%,88%,to{opacity:0;stroke-dashoffset:1}26%{opacity:.82;stroke-dashoffset:1}43%,72%{opacity:.78;stroke-dashoffset:0}82%{opacity:.16;stroke-dashoffset:0}}@keyframes signal-classification-sweep{0%,43%,82%,to{opacity:0;transform:rotate(0)}48%{opacity:.75;transform:rotate(0)}72%{opacity:.55;transform:rotate(360deg)}78%{opacity:.12;transform:rotate(390deg)}}@keyframes signal-classify-1{0%,46%,88%,to{opacity:0;stroke-dashoffset:1}50%{opacity:.95;stroke-dashoffset:1}59%,76%{opacity:.9;stroke-dashoffset:0}84%{opacity:.16;stroke-dashoffset:0}}@keyframes signal-classify-2{0%,51%,88%,to{opacity:0;stroke-dashoffset:1}55%{opacity:.95;stroke-dashoffset:1}64%,76%{opacity:.9;stroke-dashoffset:0}84%{opacity:.16;stroke-dashoffset:0}}@keyframes signal-classify-3{0%,56%,88%,to{opacity:0;stroke-dashoffset:1}60%{opacity:.95;stroke-dashoffset:1}69%,76%{opacity:.9;stroke-dashoffset:0}84%{opacity:.16;stroke-dashoffset:0}}@keyframes signal-classify-4{0%,61%,88%,to{opacity:0;stroke-dashoffset:1}65%{opacity:.95;stroke-dashoffset:1}74%,78%{opacity:.9;stroke-dashoffset:0}84%{opacity:.16;stroke-dashoffset:0}}@keyframes signal-field-resolved{0%,68%,91%,to{opacity:0;transform:scale(.82)}73%{opacity:.8;transform:scale(.82)}82%{opacity:.2;transform:scale(1.16)}}text{font-family:system-ui,-apple-system,BlinkMacSystemFont,&quot;Segoe UI&quot;,sans-serif;fill:#0d1117}.mono{font-family:ui-monospace,SFMono-Regular,Consolas,&quot;Liberation Mono&quot;,monospace}.muted{fill:#3d444d}.micro{font-size:10px;letter-spacing:1.3px;font-weight:650}.tiny{font-size:9px;letter-spacing:.65px}.value{font-size:20px;font-weight:650;letter-spacing:-.7px}.copy{font-size:11.5px}.signal-phase{opacity:1;animation:signal-phase 6s ease-in-out infinite}.signal-trace-inspection{fill:none;stroke-dasharray:1;stroke-dashoffset:1;animation:signal-trace-inspection 6s cubic-bezier(.42,0,.2,1) infinite}.signal-inspector{opacity:0;transform-box:fill-box;transform-origin:center;animation:signal-inspector 6s cubic-bezier(.42,0,.2,1) infinite}.signal-event{opacity:0;animation:signal-event 6s ease-in-out infinite}.signal-event-ring{fill:none;transform-box:fill-box;transform-origin:center;animation:signal-event-ring 6s ease-out infinite}.signal-classification-sweep{opacity:0;transform-box:fill-box;transform-origin:50% 100%;animation:signal-classification-sweep 6s cubic-bezier(.42,0,.2,1) infinite}.signal-branch{fill:none;stroke-dasharray:1;stroke-dashoffset:1;opacity:0}.signal-node-resolve{fill:none;opacity:0;transform-box:fill-box;transform-origin:center}.signal-classify-1{animation:signal-classify-1 6s ease-in-out infinite}.signal-classify-2{animation:signal-classify-2 6s ease-in-out infinite}.signal-classify-3{animation:signal-classify-3 6s ease-in-out infinite}.signal-classify-4{animation:signal-classify-4 6s ease-in-out infinite}.signal-field-resolved{fill:none;opacity:0;transform-box:fill-box;transform-origin:center;animation:signal-field-resolved 6s ease-in-out infinite}</style><defs><radialGradient id="signal-field"><stop stop-color="#512da8" stop-opacity=".16"/><stop offset="1" stop-color="#512da8" stop-opacity="0"/></radialGradient><linearGradient id="signal-trace" x1="0" x2="1" y1="0" y2="0"><stop stop-color="#0550ae"/><stop offset=".52" stop-color="#a40e26"/><stop offset="1" stop-color="#512da8"/></linearGradient><filter id="signal-endpoint" width="400%" height="400%" x="-150%" y="-150%"><feGaussianBlur result="b" stdDeviation="3"/><feMerge><feMergeNode in="b"/><feMergeNode in="SourceGraphic"/></feMerge></filter></defs><g data-audit-text="heading"><path stroke="#a40e26" stroke-width="2" d="M24 38h30"/><text x="67" y="42" fill="#a40e26" class="mono micro">PUBLIC SIGNAL / MEASURED</text><text x="24" y="82" font-size="20.5" font-weight="620" letter-spacing="-.65">Activity as a trace, not a leaderboard.</text><text x="24" y="110" class="copy muted">Fifty-two complete weeks from GitHub.</text><text x="24" y="130" class="copy muted">No estimates. No third-party statistic cards.</text></g><g opacity=".82"><path stroke="#98a3ae" d="M24 166h342"/><path stroke="#98a3ae" d="M24 200h342"/><path stroke="#98a3ae" d="M24 234h342"/><path stroke="#98a3ae" d="M24 268h342"/><path stroke="#98a3ae" d="M24 302h342"/><path stroke="#98a3ae" d="M24 152v152"/><path stroke="#98a3ae" d="M81 152v152"/><path stroke="#98a3ae" d="M138 152v152"/><path stroke="#98a3ae" d="M195 152v152"/><path stroke="#98a3ae" d="M252 152v152"/><path stroke="#98a3ae" d="M309 152v152"/><path stroke="#98a3ae" d="M366 152v152"/></g><path fill="none" stroke="#768390" stroke-linejoin="round" stroke-width="7" d="M24 304h46.94l6.71-9h6.7l6.71-129 6.7 102 6.71 36 6.71-30 6.7 30h93.88l6.71-3 6.71 3h87.17l6.71-120 6.7 120 6.71-3 6.71 3h20.11l6.71-57" data-audit-geometry="trajectory" opacity=".2"/><path fill="none" stroke="url(#signal-trace)" stroke-linecap="round" stroke-linejoin="round" stroke-width="2.2" d="M24 304h46.94l6.71-9h6.7l6.71-129 6.7 102 6.71 36 6.71-30 6.7 30h93.88l6.71-3 6.71 3h87.17l6.71-120 6.7 120 6.71-3 6.71 3h20.11l6.71-57" data-audit-geometry="trajectory"/><circle cx="91.06" cy="166" r="5" fill="#a40e26" filter="url(#signal-endpoint)"/><circle cx="366" cy="247" r="5" fill="#fff" stroke="#512da8" stroke-width="2"/><g data-audit-text="chart-dates"><text x="24" y="328" class="mono tiny muted">2025-08-24</text><text x="366" y="328" class="mono tiny muted" text-anchor="end">2026-08-22</text></g><g data-audit-text="metrics"><text x="24" y="359" class="value">135</text><text x="78" y="357" class="mono tiny muted">PUBLIC CONTRIBUTIONS / 52 WEEKS</text><text x="24" y="387" class="value">59</text><text x="66" y="385" class="mono tiny muted">PUBLIC NON-FORK REPOSITORIES</text></g><circle cx="195" cy="505" r="105" fill="url(#signal-field)"/><circle cx="195" cy="505" r="73" fill="none" stroke="#768390" stroke-dasharray="2 9"/><circle cx="195" cy="505" r="41" fill="#fff" stroke="#0550ae"/><circle cx="195" cy="505" r="6" fill="#0550ae"/><path stroke="#0550ae" d="M195 505v-73" opacity=".68"/><circle cx="195" cy="432" r="4.8" fill="#0550ae" data-audit-geometry="node"/><g data-audit-text="language-typescript"><text x="195" y="414" fill="#0550ae" class="mono tiny" text-anchor="middle">TYPESCRIPT 49.4%</text></g><path stroke="#512da8" d="M195 505h73" opacity=".68"/><circle cx="268" cy="505" r="4.8" fill="#512da8" data-audit-geometry="node"/><g data-audit-text="language-go"><text x="282" y="509" fill="#512da8" class="mono tiny">GO 20.2%</text></g><path stroke="#0a6759" d="M195 505v73" opacity=".68"/><circle cx="195" cy="578" r="4.8" fill="#0a6759" data-audit-geometry="node"/><g data-audit-text="language-vue"><text x="195" y="604" fill="#0a6759" class="mono tiny" text-anchor="middle">VUE 16.7%</text></g><path stroke="#7d4e00" d="M195 505h-63" opacity=".68"/><circle cx="132" cy="505" r="4.8" fill="#7d4e00" data-audit-geometry="node"/><g data-audit-text="language-javascript"><text x="24" y="480" fill="#7d4e00" class="mono tiny">JAVASCRIPT 4.7%</text></g><path stroke="#768390" d="M24 616h342"/><g data-audit-text="source"><text x="24" y="638" class="mono tiny muted">PRIMARY / TYPESCRIPT</text><text x="366" y="638" class="mono tiny muted" text-anchor="end">SOURCE 2026-08-25</text></g><g aria-hidden="true"><text x="24" y="144" class="mono tiny muted signal-phase" data-audit-text="motion-phase">ACQUIRE → TRACE → CLASSIFY → RESOLVE → QUIET</text><path stroke="url(#signal-trace)" stroke-linecap="round" stroke-linejoin="round" stroke-width="3" d="M24 304h46.94l6.71-9h6.7l6.71-129 6.7 102 6.71 36 6.71-30 6.7 30h93.88l6.71-3 6.71 3h87.17l6.71-120 6.7 120 6.71-3 6.71 3h20.11l6.71-57" class="signal-trace-inspection" data-audit-geometry="motion-trace" pathLength="1"/><g class="signal-inspector"><path stroke="#0550ae" stroke-dasharray="2 7" d="M24 152v152" data-audit-geometry="motion-inspector" opacity=".78"/><circle cx="24" cy="156" r="3.2" fill="#0550ae" data-audit-geometry="motion-inspector"/></g><g fill="none" stroke="#a40e26" class="signal-event"><path stroke-width="1.4" d="M80.06 156v-4h4m18 4v-4h-4m-18 24v4h4m18-4v4h-4" data-audit-geometry="motion-event"/><circle cx="91.06" cy="166" r="11" class="signal-event-ring" data-audit-geometry="motion-event"/></g><g fill="none" stroke="#512da8" class="signal-classification-sweep"><path stroke-width="1.2" d="M195 505v-60" data-audit-geometry="motion-classification"/><path stroke-width="1.1" d="m188 449 7-8 7 8" data-audit-geometry="motion-classification"/></g><path stroke="#0550ae" stroke-width="2" d="M195 505v-73" class="signal-branch signal-classify-1" data-audit-geometry="motion-branch" pathLength="1"/><circle cx="195" cy="432" r="9" stroke="#0550ae" stroke-width="1.2" class="signal-node-resolve signal-classify-1" data-audit-geometry="motion-node"/><path stroke="#512da8" stroke-width="2" d="M195 505h73" class="signal-branch signal-classify-2" data-audit-geometry="motion-branch" pathLength="1"/><circle cx="268" cy="505" r="9" stroke="#512da8" stroke-width="1.2" class="signal-node-resolve signal-classify-2" data-audit-geometry="motion-node"/><path stroke="#0a6759" stroke-width="2" d="M195 505v73" class="signal-branch signal-classify-3" data-audit-geometry="motion-branch" pathLength="1"/><circle cx="195" cy="578" r="9" stroke="#0a6759" stroke-width="1.2" class="signal-node-resolve signal-classify-3" data-audit-geometry="motion-node"/><path stroke="#7d4e00" stroke-width="2" d="M195 505h-63" class="signal-branch signal-classify-4" data-audit-geometry="motion-branch" pathLength="1"/><circle cx="132" cy="505" r="9" stroke="#7d4e00" stroke-width="1.2" class="signal-node-resolve signal-classify-4" data-audit-geometry="motion-node"/><circle cx="195" cy="505" r="53" stroke="#0a6759" stroke-width="1.1" class="signal-field-resolved" data-audit-geometry="motion-resolved"/></g></svg>