<svg xmlns="http://www.w3.org/2000/svg" aria-labelledby="systems-dark-title systems-dark-desc" role="img" viewBox="0 0 960 420"><title id="systems-dark-title">Selected public systems mapped as a mission and relationship graph</title><desc id="systems-dark-desc">dropspot-project: Limited-stock distribution with fair, idempotent claim handling. spark: Offline planning that runs without an account or backend. stock-management-system: Role-aware inventory across the stock movement lifecycle. Hunnes-Academy-motion-system: Composable motion modules behind one declarative system.</desc><style>text{font-family:system-ui,-apple-system,BlinkMacSystemFont,&quot;Segoe UI&quot;,sans-serif;fill:#f0f6fc}.mono{font-family:ui-monospace,SFMono-Regular,Consolas,&quot;Liberation Mono&quot;,monospace}.muted{fill:#8b949e}.micro{font-size:9px;letter-spacing:1.8px;font-weight:600}.tiny{font-size:8px;letter-spacing:1.15px}.name{font-size:15px;font-weight:650}.copy{font-size:11px}</style><defs><linearGradient id="systems-route" x1="0" x2="1" y1="0" y2="0"><stop stop-color="#58a6ff"/><stop offset=".45" stop-color="#ff7b72"/><stop offset="1" stop-color="#a371f7"/></linearGradient><filter id="systems-glow" width="300%" height="300%" x="-100%" y="-100%"><feGaussianBlur result="b" stdDeviation="4"/><feMerge><feMergeNode in="b"/><feMergeNode in="SourceGraphic"/></feMerge></filter></defs><g><path stroke="#58a6ff" stroke-width="2" d="M54 54h34"/><text x="104" y="58" fill="#58a6ff" class="mono micro">SELECTED SYSTEMS / 04</text><text x="54" y="94" font-size="25" font-weight="600" letter-spacing="-1.1">Tracked work in one mission graph.</text><text x="54" y="118" class="copy muted">Four public systems, each carrying a different engineering signal.</text></g><g fill="none"><path stroke="#30363d" stroke-linecap="round" stroke-width="7" d="M68 236c107-52 176-32 290-77s139 35 250 73 147-78 284-50" opacity=".16"/><path stroke="url(#systems-route)" stroke-linecap="round" stroke-width="1.5" d="M68 236c107-52 176-32 290-77s139 35 250 73 147-78 284-50"/><path stroke="#30363d" stroke-dasharray="3 10" d="M118 211c137 118 296 122 490 21"/><path stroke="#30363d" stroke-dasharray="3 10" d="M358 159c145-99 316-89 484 19"/></g><path stroke="#30363d" d="M118 211v49"/><circle cx="118" cy="211" r="16" fill="#0d1117" stroke="#58a6ff" stroke-width="1.5"/><circle cx="118" cy="211" r="5" fill="#58a6ff" filter="url(#systems-glow)"/><text x="134" y="286" fill="#58a6ff" class="mono tiny">D-01 / DISTRIBUTION</text><text x="134" y="309" class="name">dropspot-project</text><text x="134" y="328" class="mono tiny muted">React · Node.js · PostgreSQL</text><text x="134" y="345" class="mono tiny muted">PUBLIC PUSH 2025-11</text><path stroke="#30363d" d="M358 159v-35"/><circle cx="358" cy="159" r="16" fill="#0d1117" stroke="#ff7b72" stroke-width="1.5"/><circle cx="358" cy="159" r="5" fill="#ff7b72" filter="url(#systems-glow)"/><text x="374" y="86" fill="#ff7b72" class="mono tiny">S-02 / LOCAL-FIRST</text><text x="374" y="109" class="name">spark</text><text x="374" y="128" class="mono tiny muted">React · TypeScript · Dexie</text><text x="374" y="145" class="mono tiny muted">PUBLIC PUSH 2026-07</text><path stroke="#30363d" d="M608 232v49"/><circle cx="608" cy="232" r="16" fill="#0d1117" stroke="#56d4ad" stroke-width="1.5"/><circle cx="608" cy="232" r="5" fill="#56d4ad" filter="url(#systems-glow)"/><text x="592" y="307" fill="#56d4ad" class="mono tiny" text-anchor="end">O-03 / OPERATIONS</text><text x="592" y="330" class="name" text-anchor="end">stock-management-system</text><text x="592" y="349" class="mono tiny muted" text-anchor="end">Next.js · NestJS · Prisma</text><text x="592" y="366" class="mono tiny muted" text-anchor="end">PUBLIC PUSH 2025-11</text><path stroke="#30363d" d="M842 178v-36"/><circle cx="842" cy="178" r="16" fill="#0d1117" stroke="#a371f7" stroke-width="1.5"/><circle cx="842" cy="178" r="5" fill="#a371f7" filter="url(#systems-glow)"/><text x="826" y="104" fill="#a371f7" class="mono tiny" text-anchor="end">M-04 / MOTION</text><text x="826" y="127" class="name" text-anchor="end">Hunnes-Academy-motion-system</text><text x="826" y="146" class="mono tiny muted" text-anchor="end">JavaScript · GSAP · ES Modules</text><text x="826" y="163" class="mono tiny muted" text-anchor="end">PUBLIC PUSH 2026-08</text><g><path stroke="#30363d" d="M54 380h852"/><circle cx="58" cy="398" r="3" fill="#56d4ad"/><text x="71" y="401" class="mono tiny muted">NETWORK STATUS / FOUR SYSTEMS RESOLVED</text><text x="906" y="401" class="mono tiny muted" text-anchor="end">MEASURED 2026-08-24</text></g></svg>