<svg xmlns="http://www.w3.org/2000/svg" viewBox="0 0 342 412" role="img" aria-label="Spark — closed local device boundary: React interface, TypeScript application logic, Dexie IndexedDB read-write persistence, PWA shell. No backend, no login, no cloud sync evidenced.">
<rect x="6" y="30" width="330" height="340" rx="2" stroke="#6995AD" fill="#6995AD" stroke-width="1.5" fill-opacity="0.07" />
<text font-family="Consolas, 'Courier New', monospace" x="20" y="52" font-size="9" font-weight="640" letter-spacing=".14em" fill="#6995AD">LOCAL DEVICE BOUNDARY</text>
<rect x="52" y="66" width="238" height="52" stroke="#6995AD" fill="#1E2226" stroke-width="1.25" />
<text font-family="Consolas, 'Courier New', monospace" x="171" y="88" text-anchor="middle" font-size="10.5" font-weight="500" fill="#ECE8DF">React</text>
<text font-family="Consolas, 'Courier New', monospace" x="171" y="104" text-anchor="middle" font-size="9.5" fill="#A9ADB1">interface</text>
<line x1="171" y1="118" x2="171" y2="140" stroke="#6995AD" fill="none" stroke-width="1.25" />
<path d="M166 135 L171 141 L176 135" stroke="#6995AD" fill="none" stroke-width="1.25" />
<rect x="52" y="144" width="238" height="52" stroke="#6995AD" fill="#1E2226" stroke-width="1.25" />
<text font-family="Consolas, 'Courier New', monospace" x="171" y="166" text-anchor="middle" font-size="10.5" font-weight="500" fill="#ECE8DF">TypeScript</text>
<text font-family="Consolas, 'Courier New', monospace" x="171" y="182" text-anchor="middle" font-size="9.5" fill="#A9ADB1">application logic</text>
<line x1="171" y1="196" x2="171" y2="218" stroke="#6995AD" fill="none" stroke-width="1.25" />
<path d="M166 213 L171 219 L176 213" stroke="#6995AD" fill="none" stroke-width="1.25" />
<path d="M166 201 L171 195 L176 201" stroke="#6995AD" fill="none" stroke-width="1.25" />
<text font-family="Consolas, 'Courier New', monospace" x="182" y="211" font-size="8.5" fill="#A9ADB1">read / write</text>
<rect x="52" y="222" width="238" height="52" stroke="#6995AD" fill="#1E2226" stroke-width="1.25" />
<text font-family="Consolas, 'Courier New', monospace" x="171" y="244" text-anchor="middle" font-size="10.5" font-weight="500" fill="#ECE8DF">Dexie / IndexedDB</text>
<text font-family="Consolas, 'Courier New', monospace" x="171" y="260" text-anchor="middle" font-size="9.5" fill="#A9ADB1">persistence</text>
<line x1="171" y1="274" x2="171" y2="296" stroke="#6995AD" fill="none" stroke-width="1.25" />
<path d="M166 291 L171 297 L176 291" stroke="#6995AD" fill="none" stroke-width="1.25" />
<rect x="52" y="300" width="238" height="52" stroke="#6995AD" fill="#1E2226" stroke-width="1.25" />
<text font-family="Consolas, 'Courier New', monospace" x="171" y="322" text-anchor="middle" font-size="10.5" font-weight="500" fill="#ECE8DF">PWA</text>
<text font-family="Consolas, 'Courier New', monospace" x="171" y="338" text-anchor="middle" font-size="9.5" fill="#A9ADB1">app shell</text>
<text font-family="Consolas, 'Courier New', monospace" x="6" y="396" font-size="8.5" font-weight="600" letter-spacing=".12em" fill="#A9ADB1">NO BACKEND &#183; NO LOGIN &#183; NO CLOUD SYNC EVIDENCED</text>
</svg>
